<svg width="512" height="523" viewBox="0 0 512 523" fill="none" xmlns="http://www.w3.org/2000/svg">
<path d="M114 294.475H397C418.815 294.475 436.5 312.159 436.5 333.975V343.273C436.5 365.089 418.815 382.773 397 382.773H114C92.1848 382.773 74.5 365.089 74.5 343.273V333.975C74.5 312.159 92.1848 294.475 114 294.475Z" stroke="white" stroke-width="21"/>
<ellipse cx="150" cy="339.135" rx="15" ry="14.3008" fill="white"/>
<ellipse cx="249" cy="339.135" rx="15" ry="14.3008" fill="white"/>
<ellipse cx="340" cy="339.135" rx="15" ry="14.3008" fill="white"/>
<path d="M331.086 159.669L288.547 144.935C290.772 139.282 291.449 133.234 290.521 127.299C289.593 121.363 287.087 115.714 283.214 110.823C279.34 105.932 274.212 101.943 268.259 99.1898C262.306 96.4368 255.702 95 249 95C242.298 95 235.694 96.4368 229.741 99.1898C223.788 101.943 218.66 105.932 214.786 110.823C210.913 115.714 208.407 121.363 207.479 127.299C206.551 133.234 207.228 139.282 209.453 144.935L166.914 159.669C166.055 159.969 165.317 160.493 164.797 161.174C164.278 161.854 164 162.659 164 163.484V251.719C164 252.545 164.279 253.351 164.8 254.032C165.321 254.713 166.061 255.238 166.921 255.536L247.344 283.414C247.873 283.596 248.434 283.69 249 283.69C249.56 283.68 250.114 283.577 250.632 283.386L250.656 283.414L331.086 255.536C331.946 255.236 332.683 254.712 333.203 254.031C333.723 253.35 334.001 252.544 334 251.719V163.484C334 162.659 333.722 161.854 333.203 161.174C332.683 160.493 331.945 159.969 331.086 159.669V159.669ZM316.767 163.484L301.92 168.629L277.314 160.163C280.117 157.856 282.558 155.221 284.569 152.328L316.767 163.484ZM268.312 165.836L289.235 173.033L277.421 177.125L255.75 169.555C260.132 168.922 264.373 167.667 268.312 165.836V165.836ZM282.553 184.123L297.923 178.795V195.847L295.352 194.348C294.453 193.824 293.377 193.6 292.311 193.714C291.246 193.827 290.259 194.272 289.523 194.97L282.553 201.584V184.123ZM249 103.289C255.481 103.289 261.817 105.008 267.206 108.228C272.596 111.448 276.796 116.025 279.276 121.379C281.757 126.734 282.406 132.626 281.141 138.311C279.877 143.995 276.756 149.217 272.172 153.315C267.589 157.413 261.75 160.204 255.393 161.335C249.036 162.466 242.447 161.885 236.459 159.667C230.471 157.449 225.353 153.693 221.752 148.874C218.151 144.055 216.229 138.389 216.229 132.594C216.239 124.824 219.695 117.376 225.838 111.882C231.982 106.388 240.312 103.298 249 103.289V103.289ZM216.046 155.677L209.921 153.537L213.428 152.321C214.232 153.484 215.106 154.606 216.046 155.684V155.677ZM197.296 157.913L264.784 181.503L249 186.974L181.233 163.484L197.296 157.913ZM173.154 248.915V169.461L244.423 194.168V273.622L173.154 248.915ZM253.577 273.622V194.168L273.399 187.292V211.898C273.399 212.717 273.675 213.518 274.19 214.196C274.706 214.874 275.437 215.398 276.289 215.7C276.825 215.893 277.398 215.991 277.976 215.99C278.6 215.991 279.218 215.877 279.791 215.655C280.364 215.434 280.88 215.111 281.308 214.704L293.561 203.074L300.003 206.816C300.693 207.215 301.491 207.44 302.312 207.468C303.134 207.496 303.949 207.326 304.671 206.975C305.394 206.624 305.997 206.106 306.418 205.475C306.839 204.843 307.062 204.122 307.064 203.387V175.622L324.846 169.461V248.915L253.577 273.622Z" fill="white"/>
<path d="M240.848 144.638C241.692 145.277 242.766 145.621 243.872 145.606C244.978 145.592 246.04 145.219 246.863 144.558L269.06 126.719C269.53 126.365 269.916 125.931 270.195 125.442C270.474 124.952 270.639 124.417 270.682 123.87C270.725 123.322 270.644 122.772 270.444 122.252C270.244 121.733 269.929 121.255 269.518 120.846C269.107 120.438 268.609 120.108 268.052 119.876C267.496 119.643 266.892 119.514 266.279 119.494C265.665 119.475 265.053 119.566 264.479 119.762C263.906 119.959 263.382 120.257 262.94 120.638L243.711 136.095L234.955 129.476C234.028 128.775 232.828 128.432 231.618 128.523C230.408 128.613 229.288 129.13 228.504 129.959C227.72 130.788 227.337 131.861 227.438 132.943C227.54 134.025 228.117 135.026 229.044 135.727L240.848 144.638Z" fill="white"/>
</svg>
