<svg width="512" height="512" viewBox="0 0 512 512" fill="none" xmlns="http://www.w3.org/2000/svg">
<path d="M381.544 205.156L316.484 179.956C319.887 170.287 320.922 159.944 319.502 149.792C318.083 139.641 314.251 129.978 308.327 121.613C302.403 113.248 294.56 106.425 285.455 101.717C276.351 97.0081 266.25 94.5508 256 94.5508C245.75 94.5508 235.649 97.0081 226.545 101.717C217.44 106.425 209.597 113.248 203.673 121.613C197.749 129.978 193.917 139.641 192.498 149.792C191.078 159.944 192.113 170.287 195.516 179.956L130.456 205.156C129.143 205.668 128.015 206.565 127.22 207.729C126.425 208.893 125.999 210.27 126 211.68V362.592C126 364.004 126.426 365.383 127.223 366.548C128.021 367.713 129.152 368.609 130.468 369.12L253.468 416.8C254.276 417.112 255.134 417.272 256 417.272C256.857 417.254 257.703 417.078 258.496 416.752L258.532 416.8L381.544 369.12C382.858 368.607 383.986 367.71 384.781 366.545C385.577 365.38 386.001 364.002 386 362.592V211.68C386.001 210.27 385.575 208.893 384.78 207.729C383.985 206.565 382.857 205.668 381.544 205.156V205.156ZM359.644 211.68L336.936 220.48L299.304 206C303.591 202.055 307.324 197.548 310.4 192.6L359.644 211.68ZM285.536 215.704L317.536 228.012L299.468 235.012L266.324 222.064C273.026 220.982 279.512 218.834 285.536 215.704V215.704ZM307.316 246.98L330.824 237.868V267.032L326.892 264.468C325.517 263.573 323.871 263.189 322.241 263.383C320.612 263.578 319.102 264.338 317.976 265.532L307.316 276.844V246.98ZM256 108.728C265.913 108.728 275.603 111.667 283.845 117.175C292.087 122.682 298.511 130.51 302.305 139.668C306.098 148.826 307.091 158.904 305.157 168.626C303.223 178.348 298.45 187.279 291.44 194.288C284.431 201.298 275.5 206.071 265.778 208.005C256.056 209.939 245.978 208.946 236.82 205.153C227.662 201.359 219.834 194.935 214.327 186.693C208.819 178.451 205.88 168.761 205.88 158.848C205.895 145.56 211.18 132.82 220.576 123.424C229.972 114.028 242.712 108.743 256 108.728V108.728ZM205.6 198.328L196.232 194.668L201.596 192.588C202.825 194.577 204.162 196.497 205.6 198.34V198.328ZM176.924 202.152L280.14 242.5L256 251.856L152.356 211.68L176.924 202.152ZM140 357.796V221.904L249 264.16V400.052L140 357.796ZM263 400.052V264.16L293.316 252.4V294.484C293.317 295.886 293.738 297.256 294.526 298.415C295.314 299.575 296.433 300.471 297.736 300.988C298.556 301.316 299.432 301.485 300.316 301.484C301.271 301.484 302.215 301.289 303.092 300.911C303.968 300.533 304.758 299.979 305.412 299.284L324.152 279.392L334.004 285.792C335.06 286.475 336.28 286.86 337.537 286.908C338.793 286.956 340.039 286.665 341.144 286.065C342.249 285.465 343.172 284.579 343.816 283.499C344.46 282.419 344.801 281.185 344.804 279.928V232.44L372 221.904V357.796L263 400.052Z" fill="white"/>
<path d="M243.532 179.448C244.823 180.541 246.466 181.129 248.157 181.104C249.849 181.079 251.474 180.442 252.732 179.312L286.68 148.8C287.399 148.196 287.99 147.453 288.416 146.616C288.843 145.779 289.096 144.864 289.161 143.927C289.227 142.99 289.103 142.049 288.797 141.161C288.491 140.273 288.01 139.455 287.381 138.757C286.753 138.058 285.99 137.494 285.139 137.096C284.288 136.699 283.365 136.477 282.426 136.444C281.488 136.411 280.552 136.567 279.674 136.903C278.797 137.239 277.996 137.748 277.32 138.4L247.912 164.836L234.52 153.516C233.102 152.317 231.266 151.731 229.416 151.886C227.566 152.041 225.853 152.924 224.654 154.342C223.455 155.76 222.869 157.596 223.024 159.446C223.179 161.296 224.062 163.009 225.48 164.208L243.532 179.448Z" fill="white"/>
</svg>
