<svg width="400" height="300" viewBox="0 0 400 300" fill="none" xmlns="http://www.w3.org/2000/svg">
<g clip-path="url(#clip0)">
<path d="M103.951 203.911C79.0303 210.584 77.7662 231.073 80.2493 240.483H59.2561C59.4818 184.877 59.7978 70.7135 59.2561 58.9079C58.7143 47.1023 67.6082 40.729 72.1229 39.018C116.367 39.2319 209.053 39.5313 225.847 39.018C242.642 38.5048 247.743 49.0699 248.195 54.4166V81.3641C278.669 77.5145 277.991 87.1386 282.732 89.0634C286.524 90.6033 317.72 137.612 332.845 160.923C339.391 165.629 353.567 175.039 357.901 175.039C377.946 185.305 381.603 191.293 380.926 193.004V240.483H366.027C366.479 229.362 360.474 206.478 332.845 203.911C305.215 201.345 299.21 227.223 299.662 240.483H144.583C147.969 230.859 135.102 195.57 103.951 203.911Z" fill="white" stroke="white"/>
<ellipse cx="111.826" cy="232.702" rx="27.0661" ry="26.0068" fill="white"/>
<ellipse cx="332.981" cy="235.333" rx="27.0661" ry="26.0068" fill="white"/>
<rect x="-18" y="179.339" width="206" height="12" rx="5" fill="#F0F0F0"/>
<rect x="9" y="152.339" width="206" height="12" rx="5" fill="#F0F0F0"/>
<rect x="36" y="118.339" width="179" height="12" rx="5" fill="#F0F0F0"/>
<ellipse cx="183.5" cy="158.5" rx="51.5" ry="52.5" fill="#F0F0F0"/>
<path d="M216.71 128.729C215.362 128.149 213.878 127.78 212.345 127.644C210.811 127.507 209.258 127.605 207.774 127.933C206.29 128.261 204.904 128.811 203.695 129.554C202.487 130.296 201.479 131.215 200.73 132.258L178.917 162.606L166.432 152.955C165.348 152.087 164.052 151.395 162.618 150.919C161.185 150.443 159.643 150.192 158.083 150.182C156.522 150.171 154.975 150.401 153.531 150.858C152.087 151.315 150.775 151.989 149.672 152.842C148.569 153.695 147.696 154.709 147.106 155.825C146.515 156.942 146.217 158.138 146.231 159.344C146.245 160.55 146.569 161.742 147.184 162.85C147.8 163.958 148.695 164.961 149.818 165.798L173.318 183.965C175.538 185.686 178.535 186.631 181.625 186.631L183.252 186.54C185.053 186.345 186.771 185.83 188.271 185.035C189.77 184.24 191.011 183.186 191.894 181.958L221.269 141.083C222.019 140.04 222.496 138.894 222.673 137.709C222.85 136.524 222.723 135.323 222.3 134.176C221.876 133.029 221.165 131.957 220.206 131.023C219.247 130.088 218.059 129.309 216.71 128.729V128.729Z" fill="white"/>
</g>
<defs>
<clipPath id="clip0">
<rect width="400" height="300" fill="white"/>
</clipPath>
</defs>
</svg>
