<svg width="67" height="62" viewBox="0 0 67 62" fill="none" xmlns="http://www.w3.org/2000/svg">
<path d="M12.5625 58.125H54.4375V48.4375C54.4331 44.8418 52.8875 41.3945 50.1399 38.8519C47.3923 36.3093 43.667 34.8791 39.7812 34.875H27.2188C23.333 34.8791 19.6077 36.3093 16.8601 38.8519C14.1125 41.3945 12.5669 44.8418 12.5625 48.4375V58.125Z" fill="#808080" fill-opacity="0.25"/>
<path d="M18.8438 17.4375C18.8438 20.1199 19.7033 22.7421 21.3138 24.9724C22.9242 27.2028 25.2132 28.9411 27.8913 29.9676C30.5694 30.9941 33.5163 31.2627 36.3593 30.7394C39.2023 30.2161 41.8138 28.9244 43.8635 27.0276C45.9132 25.1309 47.3091 22.7143 47.8746 20.0834C48.4402 17.4525 48.1499 14.7256 47.0406 12.2474C45.9313 9.76913 44.0528 7.65096 41.6426 6.16069C39.2324 4.67043 36.3987 3.875 33.5 3.875C29.6129 3.875 25.885 5.3039 23.1365 7.84736C20.3879 10.3908 18.8438 13.8405 18.8438 17.4375V17.4375Z" fill="#808080" fill-opacity="0.25"/>
</svg>
