<svg width="524" height="184" viewBox="0 0 524 184" fill="none" xmlns="http://www.w3.org/2000/svg">
<g clip-path="url(#clip0)">
<path d="M133.863 89.1992L170.973 17.8125H192.262L143.238 106.973V160H124.488V106.973L75.4648 17.8125H96.9492L133.863 89.1992ZM290.992 94.2773H229.371V144.668H300.953V160H210.621V17.8125H299.977V33.2422H229.371V78.9453H290.992V94.2773ZM366.188 96.6211C350.107 91.9987 338.388 86.3346 331.031 79.6289C323.74 72.8581 320.094 64.5247 320.094 54.6289C320.094 43.431 324.553 34.1862 333.473 26.8945C342.457 19.5378 354.111 15.8594 368.434 15.8594C378.199 15.8594 386.891 17.7474 394.508 21.5234C402.19 25.2995 408.115 30.5078 412.281 37.1484C416.513 43.7891 418.629 51.0482 418.629 58.9258H399.781C399.781 50.332 397.047 43.5938 391.578 38.7109C386.109 33.763 378.395 31.2891 368.434 31.2891C359.189 31.2891 351.962 33.3398 346.754 37.4414C341.611 41.4779 339.039 47.1094 339.039 54.3359C339.039 60.1302 341.48 65.0456 346.363 69.082C351.311 73.0534 359.677 76.6992 371.461 80.0195C383.31 83.3398 392.555 87.0182 399.195 91.0547C405.901 95.026 410.849 99.681 414.039 105.02C417.294 110.358 418.922 116.641 418.922 123.867C418.922 135.391 414.43 144.635 405.445 151.602C396.461 158.503 384.449 161.953 369.41 161.953C359.645 161.953 350.53 160.098 342.066 156.387C333.603 152.611 327.06 147.467 322.438 140.957C317.88 134.447 315.602 127.057 315.602 118.789H334.449C334.449 127.383 337.607 134.186 343.922 139.199C350.302 144.147 358.798 146.621 369.41 146.621C379.306 146.621 386.891 144.603 392.164 140.566C397.438 136.53 400.074 131.029 400.074 124.062C400.074 117.096 397.633 111.725 392.75 107.949C387.867 104.108 379.013 100.332 366.188 96.6211Z" fill="#90DED7"/>
</g>
<defs>
<clipPath id="clip0">
<rect width="524" height="184" fill="white"/>
</clipPath>
</defs>
</svg>
