<svg width="512" height="512" viewBox="0 0 512 512" fill="none" xmlns="http://www.w3.org/2000/svg">
<rect x="136.5" y="152.5" width="239" height="86" rx="39.5" stroke="white" stroke-width="21"/>
<rect x="169" y="174" width="179" height="10" rx="5" fill="white"/>
<rect x="169" y="196" width="114" height="10" rx="5" fill="white"/>
<path d="M191.529 268.391L171.214 245.486L211.045 244.802L191.529 268.391Z" fill="white"/>
<path d="M155.187 288.594C156.154 285.983 159.846 285.983 160.813 288.593L170.97 316.01C171.406 317.187 172.528 317.968 173.783 317.968H205.724C208.724 317.968 209.866 321.885 207.336 323.498L182.202 339.513C181.01 340.273 180.51 341.761 181.001 343.086L190.755 369.415C191.754 372.111 188.755 374.532 186.33 372.987L159.612 355.962C158.629 355.336 157.371 355.336 156.388 355.962L129.67 372.987C127.245 374.532 124.246 372.111 125.245 369.415L134.999 343.086C135.49 341.761 134.99 340.273 133.798 339.513L108.664 323.498C106.134 321.885 107.276 317.968 110.276 317.968H142.217C143.472 317.968 144.594 317.187 145.03 316.01L155.187 288.594Z" fill="white"/>
<path d="M264.187 288.594C265.154 285.983 268.846 285.983 269.813 288.593L279.97 316.01C280.406 317.187 281.528 317.968 282.783 317.968H314.724C317.724 317.968 318.866 321.885 316.336 323.498L291.202 339.513C290.01 340.273 289.51 341.761 290.001 343.086L299.755 369.415C300.754 372.111 297.755 374.532 295.33 372.987L268.612 355.962C267.629 355.336 266.371 355.336 265.388 355.962L238.67 372.987C236.245 374.532 233.246 372.111 234.245 369.415L243.999 343.086C244.49 341.761 243.99 340.273 242.798 339.513L217.664 323.498C215.134 321.885 216.276 317.968 219.276 317.968H251.217C252.472 317.968 253.594 317.187 254.03 316.01L264.187 288.594Z" fill="white"/>
<path d="M371.187 288.594C372.154 285.983 375.846 285.983 376.813 288.593L386.97 316.01C387.406 317.187 388.528 317.968 389.783 317.968H421.724C424.724 317.968 425.866 321.885 423.336 323.498L398.202 339.513C397.01 340.273 396.51 341.761 397.001 343.086L406.755 369.415C407.754 372.111 404.755 374.532 402.33 372.987L375.612 355.962C374.629 355.336 373.371 355.336 372.388 355.962L345.67 372.987C343.245 374.532 340.246 372.111 341.245 369.415L350.999 343.086C351.49 341.761 350.99 340.273 349.798 339.513L324.664 323.498C322.134 321.885 323.276 317.968 326.276 317.968H358.217C359.472 317.968 360.594 317.187 361.03 316.01L371.187 288.594Z" fill="white"/>
</svg>
