<svg width="424" height="490" viewBox="0 0 424 490" fill="none" xmlns="http://www.w3.org/2000/svg">
<path d="M371.35 297.5C398.45 275.2 414.95 242 414.95 206.2C414.95 175.3 403.65 147.3 384.75 126.5V10.4C384.75 4.1 380.55 0 374.35 0H10.7501C4.4501 0 0.350098 4.2 0.350098 10.4V479.2C0.350098 485.5 4.5501 489.6 10.7501 489.6H374.25C379.45 489.6 384.65 485.4 384.65 479.2V420.6L423.25 407.3L371.35 297.5ZM395.15 206.2C395.05 244.8 373.25 279.2 338.85 294.8C326.35 300 312.85 303.1 298.25 303.1C245.15 303.1 201.35 259.3 201.35 206.2C201.35 153.1 245.15 109.3 298.25 109.3C351.35 109.3 394.05 152 395.15 206.2ZM258.85 316.3L237.75 409.3L197.15 394.8L239.35 307.5C245.55 311 252.05 314 258.85 316.3ZM363.85 468.8H21.1501V20.8H363.85V108.4C345.25 95.8 322.75 88.5 298.25 88.5C271.05 88.5 246.15 97.6 226.35 112.9V112.4H87.7501V133.2H205.75C189.95 153.3 180.45 178.7 180.45 206.1C180.45 215.8 181.65 225.2 183.85 234.2H87.7501V255H191.15C198.35 270.6 208.85 284.2 221.85 295.2L193.05 356.1H87.7501V376.9H183.25L168.95 407.1L253.35 436.3L279.65 321.3C285.65 322.2 291.85 322.7 298.15 322.7C302.95 322.7 307.85 322.4 312.65 321.9L338.85 436.2L363.85 427.6V468.8ZM354.45 409.4L333.75 318C338.05 316.8 351.35 311 353.95 309.5L395.05 394.8L354.45 409.4Z" fill="#CCCCCC"/>
<path d="M273.15 170.9L218.95 179.2L258.55 217.7L249.15 271.9L298.15 247.9L346.05 272.9L336.75 218.8L375.25 179.2L321.05 170.9L297.15 121.9L273.15 170.9ZM308.55 190.7L331.45 193.8L314.75 210.5L319.05 233.3L298.25 222.9L277.45 234.4L281.65 210.4L264.85 193.8L287.75 190.7L298.15 169.9L308.55 190.7Z" fill="#FFD700"/>
</svg>
