<svg width="471" height="291" viewBox="0 0 471 291" fill="none" xmlns="http://www.w3.org/2000/svg">
<path d="M155.809 57.9586L151.132 60.531L146.659 57.9586L122.986 65.7104C97.7957 52.5589 45.2301 24.8597 36.4894 19.2754C27.7487 13.691 32.8474 4.80871 36.4894 1.06558L155.809 57.9586Z" fill="black" stroke="black"/>
<path d="M192.726 229.517C167.82 236.556 166.557 258.168 169.038 268.095H148.057C148.283 209.438 148.599 89.0129 148.057 76.5598C147.516 64.1067 156.405 57.3838 160.917 55.579C205.134 55.8046 297.766 56.1204 314.551 55.579C331.335 55.0375 336.434 66.1822 336.885 71.8222V100.248C367.341 96.187 366.664 106.339 371.402 108.369C375.192 109.994 406.37 159.581 421.485 184.171C428.028 189.134 442.195 199.061 446.527 199.061C466.56 209.89 470.215 216.206 469.538 218.011V268.095H454.648C455.1 256.363 449.099 232.224 421.485 229.517C393.872 226.81 387.871 254.107 388.322 268.095H233.334C236.718 257.943 223.859 220.718 192.726 229.517Z" fill="black" stroke="black"/>
<path d="M19.4272 138.655C29.0241 121.206 44.0251 129.446 50.3261 135.747L76.8627 155.377L115.032 164.828C116.244 164.828 118.522 166.21 117.94 171.735C117.358 177.26 111.639 179.611 108.852 180.096L70.3194 171.735L55.4153 160.103L58.3234 185.549L88.8587 211.722C93.2209 213.467 95.0385 221.415 95.402 225.172L108.852 278.609C103.617 291.404 91.888 287.333 86.6776 283.698L68.5019 236.077L55.4153 225.172L52.5072 213.539V222.991L48.5085 241.53L17.6097 283.698C4.2323 288.06 0.887955 277.518 0.887955 271.702L21.2448 231.715L25.607 197.908C23.5471 179.854 19.4272 142.726 19.4272 138.655Z" fill="black"/>
<path d="M55.4153 102.304C62.6856 119.171 47.5391 125.569 39.0571 126.659C16.7873 121.431 21.6599 107.408 20.4802 107.408C21.5419 97.6166 29.0821 92.3179 32.7195 90.8924C45.1062 87.9432 51.5004 93.436 53.1491 96.5511H63.6831C66.4077 98.3886 61.7558 100.274 59.0893 100.986H46.6545L41.2382 102.304H55.4153Z" fill="black"/>
<path d="M19.4272 138.655C29.0241 121.206 44.0251 129.446 50.3261 135.747L76.8627 155.377L115.032 164.828C116.244 164.828 118.522 166.21 117.94 171.735C117.358 177.26 111.639 179.611 108.852 180.096L70.3194 171.735L55.4153 160.103L58.3234 185.549L88.8587 211.722C93.2209 213.467 95.0385 221.415 95.402 225.172L108.852 278.609C103.617 291.404 91.888 287.333 86.6776 283.698L68.5019 236.077L55.4153 225.172L52.5072 213.539V222.991L48.5085 241.53L17.6097 283.698C4.2323 288.06 0.887955 277.518 0.887955 271.702L21.2448 231.715L25.607 197.908C23.5471 179.854 19.4272 142.726 19.4272 138.655Z" stroke="black"/>
<path d="M55.4153 102.304C62.6856 119.171 47.5391 125.569 39.0571 126.659C16.7873 121.431 21.6599 107.408 20.4802 107.408C21.5419 97.6166 29.0821 92.3179 32.7195 90.8924C45.1062 87.9432 51.5004 93.436 53.1491 96.5511H63.6831C66.4077 98.3886 61.7558 100.274 59.0893 100.986H46.6545L41.2382 102.304H55.4153Z" stroke="black"/>
<path d="M88.0509 185.944L102.633 183.181L81.0092 177.737C81.1563 179.142 81.5734 182.567 82.0646 185.023C82.5557 187.479 86.2601 186.66 88.0509 185.944Z" fill="black"/>
<path d="M80.6831 177.655L81.0092 177.737M81.0092 177.737L102.633 183.181L88.0509 185.944C86.2601 186.66 82.5557 187.479 82.0646 185.023C81.5734 182.567 81.1563 179.142 81.0092 177.737Z" stroke="black"/>
<ellipse cx="200.596" cy="259.887" rx="27.0502" ry="27.4333" fill="black"/>
<ellipse cx="421.622" cy="262.662" rx="27.0502" ry="27.4333" fill="black"/>
<path d="M137.401 174.648L120.139 177.655C125.059 168.898 119.948 162.712 116.778 160.713L75.3437 149.956C75.2773 149.358 74.9453 146.49 74.1485 139.797C73.3517 133.103 75.5947 129.801 76.8158 128.986C89.0665 126.796 114.949 122.104 120.473 120.856C125.997 119.609 128.12 122.415 128.492 123.975L137.401 174.648Z" fill="black" stroke="black"/>
</svg>
