<svg width="300" height="300" viewBox="0 0 300 300" fill="none" xmlns="http://www.w3.org/2000/svg">
<path d="M108.928 157.922L123.843 182.784L135.243 171.384L110.381 156.469L108.928 157.922Z" fill="#C4C4C4"/>
<path d="M234.375 60.9371C234.375 59.6939 234.869 58.5016 235.748 57.6225C236.627 56.7435 237.819 56.2496 239.062 56.2496C241.138 56.2814 243.202 56.5583 245.212 57.0746C244.107 55.4999 242.543 54.3036 240.734 53.6481C238.925 52.9925 236.958 52.9094 235.1 53.4101C233.243 53.9109 231.584 54.9711 230.349 56.4469C229.115 57.9227 228.364 59.7427 228.199 61.6598C228.035 63.5768 228.464 65.4981 229.429 67.1629C230.393 68.8277 231.847 70.1553 233.592 70.9655C235.338 71.7757 237.29 72.0293 239.184 71.6919C241.078 71.3544 242.823 70.4423 244.181 69.0793C244.79 68.4491 245.309 67.7376 245.723 66.9652C243.61 66.0951 241.348 65.64 239.062 65.6246C237.819 65.6246 236.627 65.1307 235.748 64.2517C234.869 63.3726 234.375 62.1803 234.375 60.9371Z" fill="#C4C4C4"/>
<path d="M265.411 70.9545L269.062 47.3436C269.371 45.3437 269.244 43.3008 268.69 41.3545C268.136 39.4082 267.169 37.6042 265.855 36.0659C264.54 34.5275 262.909 33.2909 261.073 32.4406C259.237 31.5903 257.239 31.1463 255.215 31.1389C254.505 31.1387 253.795 31.192 253.092 31.2983L180.904 42.0795C173.956 43.1312 167.524 46.3709 162.543 51.328L22.106 191.719C20.7999 193.024 19.7639 194.575 19.057 196.281C18.3501 197.987 17.9863 199.816 17.9863 201.663C17.9863 203.51 18.3501 205.339 19.057 207.045C19.7639 208.751 20.7999 210.302 22.106 211.608L88.3966 277.894C91.075 280.453 94.6368 281.881 98.3411 281.881C102.046 281.881 105.607 280.453 108.286 277.894L189.773 196.406C196.195 240.586 215.559 271.875 239.062 271.875C267.975 271.875 290.625 224.531 290.625 164.062C290.625 123.881 280.612 89.503 265.411 70.9545ZM165.436 88.1624L182.011 71.5874C182.443 71.1396 182.96 70.7825 183.532 70.5369C184.104 70.2912 184.719 70.1619 185.342 70.1565C185.964 70.1511 186.581 70.2697 187.157 70.5054C187.733 70.7411 188.257 71.0891 188.697 71.5293C189.137 71.9694 189.485 72.4927 189.721 73.0688C189.956 73.6449 190.075 74.2621 190.07 74.8845C190.064 75.5069 189.935 76.122 189.689 76.6939C189.444 77.2658 189.087 77.7831 188.639 78.2155L175.378 91.4764L188.639 104.733L195.267 98.1045C196.151 97.2507 197.335 96.7782 198.564 96.7889C199.793 96.7996 200.969 97.2925 201.838 98.1616C202.707 99.0307 203.2 100.206 203.211 101.435C203.221 102.665 202.749 103.849 201.895 104.733L195.267 111.361L208.523 124.622L221.784 111.361C222.217 110.913 222.734 110.556 223.306 110.31C223.878 110.065 224.493 109.935 225.115 109.93C225.737 109.925 226.355 110.043 226.931 110.279C227.507 110.515 228.03 110.863 228.47 111.303C228.91 111.743 229.259 112.266 229.494 112.842C229.73 113.418 229.848 114.036 229.843 114.658C229.838 115.28 229.708 115.895 229.463 116.467C229.217 117.039 228.86 117.557 228.412 117.989L211.837 134.564C210.958 135.443 209.766 135.936 208.523 135.936C207.28 135.936 206.088 135.443 205.209 134.564L165.436 94.7905C164.557 93.9114 164.063 92.7194 164.063 91.4764C164.063 90.2335 164.557 89.0414 165.436 88.1624ZM114.914 231.492L101.653 244.748C100.765 245.582 99.5885 246.037 98.3712 246.018C97.154 245.999 95.9918 245.508 95.1306 244.647C94.2695 243.786 93.7769 242.625 93.7571 241.407C93.7374 240.19 94.192 239.013 95.0247 238.125L108.281 224.864C108.717 224.429 109.063 223.912 109.298 223.343C109.534 222.773 109.656 222.163 109.656 221.547C109.656 220.931 109.534 220.322 109.298 219.752C109.063 219.183 108.717 218.666 108.281 218.231L101.653 211.603C101.218 211.167 100.701 210.821 100.131 210.585C99.5624 210.35 98.9525 210.228 98.3364 210.228C97.7204 210.228 97.1105 210.35 96.5414 210.585C95.9724 210.821 95.4554 211.167 95.02 211.603L88.3919 218.231C87.0861 219.537 85.5357 220.573 83.8294 221.28C82.1231 221.987 80.2943 222.351 78.4474 222.351C76.6005 222.351 74.7717 221.987 73.0654 221.28C71.3591 220.573 69.8087 219.537 68.5029 218.231L61.8747 211.603C60.5687 210.297 59.5326 208.747 58.8257 207.04C58.1189 205.334 57.7551 203.505 57.7551 201.658C57.7551 199.812 58.1189 197.983 58.8257 196.276C59.5326 194.57 60.5687 193.02 61.8747 191.714L75.131 178.458C76.0151 177.604 77.1991 177.131 78.4282 177.142C79.6572 177.153 80.8329 177.646 81.702 178.515C82.5711 179.384 83.0641 180.56 83.0748 181.789C83.0854 183.018 82.613 184.202 81.7591 185.086L68.5029 198.342C68.067 198.777 67.7213 199.294 67.4854 199.863C67.2495 200.432 67.1281 201.042 67.1281 201.658C67.1281 202.274 67.2495 202.884 67.4854 203.453C67.7213 204.023 68.067 204.539 68.5029 204.975L75.131 211.603C75.5663 212.039 76.0833 212.385 76.6524 212.62C77.2214 212.856 77.8314 212.978 78.4474 212.978C79.0634 212.978 79.6734 212.856 80.2424 212.62C80.8115 212.385 81.3285 212.039 81.7638 211.603L88.3919 204.975C89.6978 203.669 91.2481 202.633 92.9544 201.926C94.6607 201.219 96.4895 200.855 98.3364 200.855C100.183 200.855 102.012 201.219 103.718 201.926C105.425 202.633 106.975 203.669 108.281 204.975L114.909 211.603C116.215 212.909 117.251 214.459 117.958 216.165C118.665 217.872 119.029 219.701 119.029 221.547C119.029 223.394 118.665 225.223 117.958 226.93C117.251 228.636 116.215 230.186 114.909 231.492H114.914ZM163.392 182.812C163.075 183.34 162.658 183.8 162.163 184.167C161.668 184.533 161.106 184.799 160.509 184.948C159.912 185.098 159.291 185.128 158.682 185.037C158.074 184.947 157.489 184.737 156.961 184.42L143.526 176.358L128.817 191.067L136.879 204.501C137.52 205.567 137.71 206.844 137.409 208.051C137.108 209.257 136.34 210.295 135.274 210.935C134.208 211.575 132.931 211.766 131.725 211.465C130.518 211.164 129.481 210.396 128.84 209.33L99.0091 159.609C98.4717 158.713 98.2491 157.664 98.3765 156.627C98.5038 155.59 98.974 154.625 99.7122 153.886L106.345 147.253C107.084 146.515 108.049 146.045 109.086 145.917C110.123 145.79 111.173 146.012 112.068 146.55L161.789 176.381C162.854 177.021 163.621 178.059 163.922 179.265C164.223 180.471 164.032 181.747 163.392 182.812ZM177.318 169.083C176.439 169.961 175.247 170.455 174.004 170.455C172.761 170.455 171.569 169.961 170.69 169.083L130.917 129.309C130.469 128.877 130.112 128.36 129.866 127.788C129.621 127.216 129.491 126.601 129.486 125.978C129.481 125.356 129.599 124.739 129.835 124.163C130.071 123.586 130.419 123.063 130.859 122.623C131.299 122.183 131.822 121.835 132.398 121.599C132.974 121.363 133.592 121.245 134.214 121.25C134.837 121.256 135.452 121.385 136.023 121.631C136.595 121.876 137.113 122.233 137.545 122.681L174.004 159.14L190.579 142.565C191.464 141.712 192.648 141.239 193.877 141.25C195.106 141.26 196.281 141.753 197.15 142.623C198.02 143.492 198.513 144.667 198.523 145.896C198.534 147.125 198.061 148.31 197.208 149.194L177.318 169.083ZM239.062 262.5C219.712 262.5 202.968 230.189 198.239 187.94L248.756 137.419C253.705 132.494 256.942 126.11 257.99 119.208L263.343 84.4077C260.732 79.8326 257.445 75.678 253.593 72.0842C252.229 74.3613 250.396 76.3223 248.217 77.8372C246.037 79.3521 243.56 80.3863 240.95 80.8711C238.34 81.356 235.657 81.2805 233.079 80.6496C230.5 80.0187 228.085 78.8468 225.994 77.2117C223.903 75.5765 222.184 73.5155 220.95 71.1653C219.716 68.8151 218.995 66.2294 218.836 63.5796C218.678 60.9299 219.084 58.2767 220.029 55.7959C220.973 53.3152 222.434 51.0636 224.315 49.1905C227.889 45.7846 232.637 43.8847 237.574 43.8847C242.511 43.8847 247.259 45.7846 250.833 49.1905C254.308 52.6535 256.276 57.3485 256.308 62.2545C259.718 64.7475 262.786 67.6772 265.434 70.9686L263.386 84.2858C274.092 102.337 281.25 131.634 281.25 164.062C281.25 217.42 261.928 262.5 239.062 262.5Z" fill="#C4C4C4"/>
</svg>
