<svg width="300" height="300" viewBox="0 0 300 300" fill="none" xmlns="http://www.w3.org/2000/svg">
<path d="M45.3745 199.98H145.967V207.458H45.3745V199.98Z" fill="#C4C4C4"/>
<path d="M145.967 113.982C145.969 113.344 146.128 112.718 146.427 112.162C146.727 111.606 147.159 111.14 147.681 110.806C148.202 110.473 148.798 110.284 149.41 110.257C150.021 110.23 150.63 110.367 151.177 110.654L165.475 118.095L179.81 90.3133L148.734 72.8519H124.16C123.29 80.0774 119.915 86.7236 114.67 91.5421C109.424 96.3605 102.668 99.0195 95.6709 99.0195C88.6742 99.0195 81.9183 96.3605 76.6723 91.5421C71.4263 86.7236 68.0514 80.0774 67.1816 72.8519H42.6082L11.5322 90.3133L25.8667 118.095L40.1653 110.654C40.7122 110.367 41.3204 110.23 41.9323 110.257C42.5442 110.284 43.1393 110.473 43.6613 110.806C44.1832 111.14 44.6146 111.606 44.9145 112.162C45.2143 112.718 45.3727 113.344 45.3745 113.982V192.502H145.967V113.982ZM131.597 147.633C131.597 148.625 131.218 149.576 130.545 150.277C129.871 150.978 128.957 151.372 128.004 151.372H63.3375C62.3847 151.372 61.4709 150.978 60.7972 150.277C60.1234 149.576 59.7449 148.625 59.7449 147.633V125.199C59.7449 124.207 60.1234 123.256 60.7972 122.555C61.4709 121.854 62.3847 121.46 63.3375 121.46H128.004C128.957 121.46 129.871 121.854 130.545 122.555C131.218 123.256 131.597 124.207 131.597 125.199V147.633Z" fill="#C4C4C4"/>
<path d="M66.9301 128.938H124.412V143.894H66.9301V128.938Z" fill="#C4C4C4"/>
<path d="M19.436 121.422L5.17334 93.8654L0 96.7819L14.5141 124.002L19.436 121.422Z" fill="#C4C4C4"/>
<path d="M191.342 96.7819L186.169 93.8654L171.906 121.422L176.828 124.002L191.342 96.7819Z" fill="#C4C4C4"/>
<path d="M82.019 43.8218L93.5549 35.0874C94.1688 34.6229 94.9083 34.3727 95.6673 34.3727C96.4263 34.3727 97.1658 34.6229 97.7798 35.0874L109.341 43.8256L104.922 29.6919C104.687 28.9405 104.686 28.1309 104.92 27.3792C105.155 26.6275 105.612 25.9724 106.226 25.5079L117.783 16.766H103.503C102.744 16.7659 102.005 16.5159 101.391 16.0518C100.777 15.5876 100.321 14.9332 100.086 14.1823L95.6709 0.0448691V0L91.2664 14.1748C91.0332 14.9271 90.5769 15.5832 89.9631 16.0487C89.3492 16.5143 88.6094 16.7654 87.8498 16.766H73.5585L85.1123 25.5042C85.7265 25.9679 86.1839 26.6222 86.4188 27.3731C86.6537 28.1241 86.6541 28.9332 86.42 29.6844L82.019 43.8218Z" fill="#C4C4C4"/>
<path d="M157.464 43.8218L168.999 35.0874C169.613 34.6229 170.353 34.3727 171.112 34.3727C171.871 34.3727 172.61 34.6229 173.224 35.0874L184.785 43.8256L180.366 29.6919C180.131 28.9405 180.131 28.1309 180.365 27.3792C180.599 26.6275 181.056 25.9724 181.671 25.5079L193.228 16.766H178.947C178.189 16.7659 177.45 16.5159 176.836 16.0518C176.222 15.5876 175.765 14.9332 175.531 14.1823L171.116 0.0448691V0L166.711 14.1748C166.478 14.9271 166.022 15.5832 165.408 16.0487C164.794 16.5143 164.054 16.7654 163.294 16.766H149.003L160.557 25.5042C161.171 25.9679 161.628 26.6222 161.863 27.3731C162.098 28.1241 162.099 28.9332 161.865 29.6844L157.464 43.8218Z" fill="#C4C4C4"/>
<path d="M10.1671 43.8218L21.7029 35.0874C22.3168 34.6229 23.0563 34.3727 23.8153 34.3727C24.5743 34.3727 25.3139 34.6229 25.9278 35.0874L37.4888 43.8256L33.0699 29.6919C32.8345 28.9405 32.834 28.1309 33.0683 27.3792C33.3026 26.6275 33.7597 25.9724 34.374 25.5079L45.9314 16.766H31.6508C30.8922 16.7659 30.153 16.5159 29.5392 16.0518C28.9255 15.5876 28.4687 14.9332 28.2342 14.1823L23.8189 0.0448691L19.4072 14.1823C19.1728 14.9332 18.716 15.5876 18.1022 16.0518C17.4885 16.5159 16.7493 16.7659 15.9907 16.766H1.70648L13.2603 25.5042C13.8745 25.9679 14.3319 26.6222 14.5668 27.3731C14.8017 28.1241 14.8021 28.9332 14.568 29.6844L10.1671 43.8218Z" fill="#C4C4C4"/>
<path d="M131.148 277.566C137.543 277.566 143.794 275.592 149.111 271.894C154.429 268.197 158.573 262.941 161.02 256.792C163.467 250.643 164.108 243.877 162.86 237.349C161.612 230.821 158.533 224.825 154.011 220.119C149.489 215.413 143.728 212.208 137.456 210.909C131.184 209.611 124.683 210.277 118.774 212.824C112.866 215.371 107.816 219.684 104.264 225.218C100.711 230.752 98.8145 237.258 98.8145 243.914C98.8278 252.835 102.239 261.386 108.299 267.694C114.36 274.002 122.577 277.552 131.148 277.566ZM134.74 247.653H127.555C124.697 247.653 121.955 246.471 119.934 244.368C117.913 242.264 116.777 239.411 116.777 236.436C116.777 233.461 117.913 230.608 119.934 228.504C121.955 226.401 124.697 225.219 127.555 225.219V221.48C127.555 220.488 127.934 219.537 128.607 218.836C129.281 218.135 130.195 217.741 131.148 217.741C132.101 217.741 133.014 218.135 133.688 218.836C134.362 219.537 134.74 220.488 134.74 221.48V225.219C137.599 225.219 140.34 226.401 142.361 228.504C144.383 230.608 145.518 233.461 145.518 236.436C145.518 237.428 145.14 238.379 144.466 239.08C143.792 239.781 142.878 240.175 141.926 240.175C140.973 240.175 140.059 239.781 139.385 239.08C138.712 238.379 138.333 237.428 138.333 236.436C138.333 235.444 137.955 234.493 137.281 233.792C136.607 233.091 135.693 232.697 134.74 232.697H127.555C126.602 232.697 125.689 233.091 125.015 233.792C124.341 234.493 123.963 235.444 123.963 236.436C123.963 237.428 124.341 238.379 125.015 239.08C125.689 239.781 126.602 240.175 127.555 240.175H134.74C137.599 240.175 140.34 241.357 142.361 243.46C144.383 245.564 145.518 248.417 145.518 251.392C145.518 254.367 144.383 257.22 142.361 259.324C140.34 261.428 137.599 262.609 134.74 262.609V266.348C134.74 267.34 134.362 268.291 133.688 268.992C133.014 269.694 132.101 270.087 131.148 270.087C130.195 270.087 129.281 269.694 128.607 268.992C127.934 268.291 127.555 267.34 127.555 266.348V262.609C124.697 262.609 121.955 261.428 119.934 259.324C117.913 257.22 116.777 254.367 116.777 251.392C116.777 250.401 117.156 249.449 117.83 248.748C118.503 248.047 119.417 247.653 120.37 247.653C121.323 247.653 122.237 248.047 122.91 248.748C123.584 249.449 123.963 250.401 123.963 251.392C123.963 252.384 124.341 253.335 125.015 254.036C125.689 254.737 126.602 255.131 127.555 255.131H134.74C135.693 255.131 136.607 254.737 137.281 254.036C137.955 253.335 138.333 252.384 138.333 251.392C138.333 250.401 137.955 249.449 137.281 248.748C136.607 248.047 135.693 247.653 134.74 247.653Z" fill="#C4C4C4"/>
<path d="M170.666 243.914C170.666 245.185 170.595 246.419 170.487 247.653H231.741C232.693 247.653 233.607 247.259 234.281 246.558C234.955 245.857 235.333 244.906 235.333 243.914V236.436C235.333 235.444 234.955 234.493 234.281 233.792C233.607 233.091 232.693 232.697 231.741 232.697H169.122C170.147 236.34 170.667 240.118 170.666 243.914Z" fill="#C4C4C4"/>
<path d="M238.926 277.566H174.259C173.784 277.568 173.313 277.668 172.876 277.86C172.438 278.053 172.041 278.334 171.708 278.687C173.542 279.596 175.092 281.027 176.179 282.813C177.266 284.599 177.846 286.669 177.852 288.783V292.522H238.926C239.879 292.522 240.792 292.128 241.466 291.427C242.14 290.726 242.518 289.774 242.518 288.783V281.305C242.518 280.313 242.14 279.362 241.466 278.661C240.792 277.96 239.879 277.566 238.926 277.566Z" fill="#C4C4C4"/>
<path d="M242.518 151.484C241.149 152.308 240.078 153.578 239.473 155.099C238.867 156.62 238.761 158.306 239.171 159.896C239.58 161.486 240.482 162.891 241.737 163.893C242.992 164.896 244.529 165.439 246.111 165.439C247.693 165.439 249.23 164.896 250.485 163.893C251.74 162.891 252.642 161.486 253.051 159.896C253.461 158.306 253.355 156.62 252.749 155.099C252.144 153.578 251.073 152.308 249.704 151.484V157.916C249.704 158.907 249.325 159.858 248.651 160.56C247.978 161.261 247.064 161.655 246.111 161.655C245.158 161.655 244.244 161.261 243.571 160.56C242.897 159.858 242.518 158.907 242.518 157.916V151.484Z" fill="#C4C4C4"/>
<path d="M246.111 210.262H181.444C179.46 210.262 177.852 211.937 177.852 214.002V221.48C177.852 223.545 179.46 225.219 181.444 225.219H246.111C248.095 225.219 249.704 223.545 249.704 221.48V214.002C249.704 211.937 248.095 210.262 246.111 210.262Z" fill="#C4C4C4"/>
<path d="M167.074 285.044H102.407C100.423 285.044 98.8145 286.718 98.8145 288.783V296.261C98.8145 298.326 100.423 300 102.407 300H167.074C169.058 300 170.666 298.326 170.666 296.261V288.783C170.666 286.718 169.058 285.044 167.074 285.044Z" fill="#C4C4C4"/>
<path d="M170.666 151.484C169.297 152.308 168.226 153.578 167.621 155.099C167.015 156.62 166.909 158.306 167.319 159.896C167.728 161.486 168.63 162.891 169.885 163.893C171.14 164.896 172.677 165.439 174.259 165.439C175.841 165.439 177.378 164.896 178.633 163.893C179.888 162.891 180.79 161.486 181.199 159.896C181.609 158.306 181.503 156.62 180.897 155.099C180.292 153.578 179.221 152.308 177.852 151.484V157.916C177.852 158.907 177.473 159.858 176.799 160.56C176.126 161.261 175.212 161.655 174.259 161.655C173.306 161.655 172.392 161.261 171.719 160.56C171.045 159.858 170.666 158.907 170.666 157.916V151.484Z" fill="#C4C4C4"/>
<path d="M246.111 255.131H181.444C179.46 255.131 177.852 256.805 177.852 258.87V266.348C177.852 268.413 179.46 270.087 181.444 270.087H246.111C248.095 270.087 249.704 268.413 249.704 266.348V258.87C249.704 256.805 248.095 255.131 246.111 255.131Z" fill="#C4C4C4"/>
<path d="M285.63 135.481V258.87C285.631 262.356 284.962 265.806 283.66 269.017C282.357 272.229 280.45 275.135 278.049 277.566H282.037C286.801 277.566 291.37 275.596 294.739 272.09C298.107 268.584 300 263.829 300 258.87V135.481H285.63Z" fill="#C4C4C4"/>
<path d="M170.666 258.87C170.676 257.595 170.895 256.33 171.313 255.131H169.122C166.645 264.226 161.226 272.151 153.781 277.566H164.128C164.711 275.863 165.682 274.334 166.959 273.11C168.236 271.885 169.779 271.002 171.457 270.536C170.94 269.205 170.672 267.784 170.666 266.348V258.87Z" fill="#C4C4C4"/>
<path d="M246.111 83.1343C239.863 83.1324 233.704 84.6835 228.148 87.6586C222.127 84.4455 215.414 82.8972 208.652 83.1623C201.891 83.4274 195.308 85.4971 189.537 89.1725C183.765 92.8479 178.999 98.0057 175.694 104.151C172.39 110.296 170.658 117.222 170.666 124.264V135.481H177.852V124.264C177.844 118.878 179.08 113.569 181.457 108.785C183.833 104.001 187.279 99.8807 191.505 96.7726C195.731 93.6644 200.613 91.6589 205.74 90.9252C210.867 90.1916 216.088 90.7511 220.963 92.5568C216.469 96.4114 212.85 101.253 210.365 106.735C207.881 112.217 206.592 118.203 206.592 124.264V135.481H177.852V143.483C181.238 144.393 184.19 146.557 186.153 149.57C188.116 152.583 188.956 156.237 188.515 159.849C188.074 163.46 186.383 166.78 183.759 169.186C181.134 171.593 177.757 172.92 174.259 172.92C170.761 172.92 167.384 171.593 164.759 169.186C162.135 166.78 160.444 163.46 160.003 159.849C159.562 156.237 160.402 152.583 162.365 149.57C164.328 146.557 167.28 144.393 170.666 143.483V135.481H141.926V204.392C147.146 205.939 152.005 208.586 156.201 212.169C160.397 215.751 163.841 220.193 166.319 225.219H171.313C170.895 224.02 170.676 222.755 170.666 221.48V214.002C170.675 211.029 171.813 208.181 173.833 206.08C175.852 203.978 178.588 202.793 181.444 202.784H246.111C248.967 202.793 251.703 203.978 253.723 206.08C255.742 208.181 256.88 211.029 256.889 214.002V221.48C256.88 224.452 255.742 227.3 253.723 229.402C251.703 231.503 248.967 232.688 246.111 232.697H241.872C242.29 233.896 242.509 235.16 242.518 236.436V243.914C242.509 245.19 242.29 246.454 241.872 247.653H246.111C248.967 247.662 251.703 248.847 253.723 250.948C255.742 253.05 256.88 255.898 256.889 258.87V266.348C256.879 268.806 256.093 271.191 254.652 273.137C253.21 275.083 251.194 276.482 248.913 277.117C248.945 277.272 248.993 277.422 249.057 277.566H260.481C265.245 277.566 269.814 275.596 273.183 272.09C276.552 268.584 278.444 263.829 278.444 258.87V135.481H249.704V143.483C253.09 144.393 256.042 146.557 258.005 149.57C259.968 152.583 260.808 156.237 260.367 159.849C259.926 163.46 258.235 166.78 255.611 169.186C252.986 171.593 249.609 172.92 246.111 172.92C242.613 172.92 239.236 171.593 236.611 169.186C233.987 166.78 232.296 163.46 231.855 159.849C231.414 156.237 232.254 152.583 234.217 149.57C236.18 146.557 239.132 144.393 242.518 143.483V135.481H213.778V124.264C213.783 118.733 215.096 113.288 217.603 108.41C220.109 103.532 223.731 99.3716 228.148 96.2958C232.565 99.3716 236.187 103.532 238.693 108.41C241.2 113.288 242.513 118.733 242.518 124.264V135.481H249.704V124.264C249.704 118.203 248.415 112.217 245.931 106.735C243.447 101.253 239.827 96.4114 235.333 92.5568C240.209 90.7511 245.429 90.1916 250.556 90.9252C255.683 91.6589 260.565 93.6644 264.791 96.7726C269.017 99.8807 272.463 104.001 274.839 108.785C277.216 113.569 278.452 118.878 278.444 124.264V135.481H285.63V124.264C285.623 113.358 281.457 102.9 274.048 95.1886C266.638 87.4768 256.59 83.1413 246.111 83.1343Z" fill="#C4C4C4"/>
</svg>
