<svg width="421" height="184" viewBox="0 0 421 184" fill="none" xmlns="http://www.w3.org/2000/svg">
<g clip-path="url(#clip0)">
<path d="M199.781 160H180.934L109.352 50.4297V160H90.5039V17.8125H109.352L181.129 127.871V17.8125H199.781V160ZM342.457 93.4961C342.457 107.428 340.113 119.603 335.426 130.02C330.738 140.371 324.098 148.281 315.504 153.75C306.91 159.219 296.884 161.953 285.426 161.953C274.228 161.953 264.299 159.219 255.641 153.75C246.982 148.216 240.243 140.371 235.426 130.215C230.673 119.993 228.232 108.177 228.102 94.7656V84.5117C228.102 70.8398 230.478 58.763 235.23 48.2812C239.983 37.7995 246.689 29.7917 255.348 24.2578C264.072 18.6589 274.033 15.8594 285.23 15.8594C296.624 15.8594 306.65 18.6263 315.309 24.1602C324.033 29.6289 330.738 37.6042 335.426 48.0859C340.113 58.5026 342.457 70.6445 342.457 84.5117V93.4961ZM323.805 84.3164C323.805 67.4544 320.419 54.5312 313.648 45.5469C306.878 36.4974 297.405 31.9727 285.23 31.9727C273.382 31.9727 264.039 36.4974 257.203 45.5469C250.432 54.5312 246.949 67.0312 246.754 83.0469V93.4961C246.754 109.837 250.172 122.695 257.008 132.07C263.909 141.38 273.382 146.035 285.426 146.035C297.535 146.035 306.91 141.641 313.551 132.852C320.191 123.997 323.609 111.335 323.805 94.8633V84.3164Z" fill="#018786"/>
</g>
<defs>
<clipPath id="clip0">
<rect width="421" height="184" fill="white"/>
</clipPath>
</defs>
</svg>
