<svg id="Solid" height="512" viewBox="0 0 512 512" width="512" xmlns="http://www.w3.org/2000/svg"><rect height="96" rx="24" width="176" x="200" y="336"/><path d="m270.624 112h17.376v-16a8 8 0 0 1 0-16v-16a8 8 0 0 1 0-16v-16h-17.376a23.889 23.889 0 0 1 1.376 8v64a23.889 23.889 0 0 1 -1.376 8z"/><path d="m432 152a8.009 8.009 0 0 0 -8-8h-48a8.009 8.009 0 0 0 -8 8v8h64z"/><path d="m464 40a8.009 8.009 0 0 0 -8-8h-80a8.009 8.009 0 0 0 -8 8v8h88a8.009 8.009 0 0 0 8-8z"/><path d="m256 104v-64a8.009 8.009 0 0 0 -8-8h-16a8.009 8.009 0 0 0 -8 8v72h24a8.009 8.009 0 0 0 8-8z"/><path d="m384 112h32v16h-32z"/><path d="m392 64h16v32h-16z"/><path d="m158.291 104h-124.582l13.958 328h32.333v-200a8 8 0 0 1 8-8h65.184z"/><path d="m224 128h16v96h-16z"/><path d="m160 440a8 8 0 0 1 8-8h24.022a39.788 39.788 0 0 1 -8.022-24v-48a40.045 40.045 0 0 1 40-40h80v-80h-160v8a8 8 0 0 1 -16 0v-8h-32v240h32v-8a8 8 0 0 1 16 0v8h24.022a39.788 39.788 0 0 1 -8.022-24zm-16 0a8 8 0 0 1 -16 0v-16a8 8 0 0 1 16 0zm0-48a8 8 0 0 1 -16 0v-16a8 8 0 0 1 16 0zm0-48a8 8 0 0 1 -16 0v-16a8 8 0 0 1 16 0zm0-48a8 8 0 0 1 -16 0v-16a8 8 0 0 1 16 0z"/><path d="m48 448h32v32h-32z"/><path d="m159.652 72h-127.304l.681 16h125.942z"/><path d="m224 448h-48v8a24.027 24.027 0 0 0 24 24h176a24.027 24.027 0 0 0 24-24v-8z"/><path d="m456 176h-112a24.027 24.027 0 0 0 -24 24v120h32a40.045 40.045 0 0 1 40 40v48a39.788 39.788 0 0 1 -8.022 24h24.022a8 8 0 0 1 8 8v16a39.788 39.788 0 0 1 -8.022 24h48.022a24.027 24.027 0 0 0 24-24v-256a24.027 24.027 0 0 0 -24-24zm-56 104c-31.4 0-56-17.57-56-40s24.6-40 56-40 56 17.57 56 40-24.6 40-56 40z"/><ellipse cx="400" cy="240" rx="40" ry="24"/></svg>