<svg width="857" height="691" viewBox="0 0 857 691" fill="none" xmlns="http://www.w3.org/2000/svg">
<g clip-path="url(#clip0)">
<path d="M241.167 459.195C294.849 459.195 338.368 415.677 338.368 361.995C338.368 308.312 294.849 264.794 241.167 264.794C187.485 264.794 143.967 308.312 143.967 361.995C143.967 415.677 187.485 459.195 241.167 459.195Z" fill="#E6E6E6"/>
<path d="M214.906 503.933L238.816 518.749V418.598L212.015 401.99C209.8 400.617 208.181 398.462 207.479 395.952V395.952C210.039 395.463 212.69 395.953 214.906 397.326L238.816 412.142V373.306C238.816 365.794 239.737 358.309 241.559 351.02C243.381 358.309 244.303 365.794 244.303 373.306V436.694L279.577 414.836C282.393 413.09 285.652 412.191 288.965 412.246C287.539 415.237 285.284 417.755 282.467 419.5L244.303 443.149V680H238.816V525.205L212.015 508.597C209.8 507.224 208.181 505.069 207.479 502.559V502.559C210.039 502.07 212.69 502.56 214.906 503.933Z" fill="#CCCCCC"/>
<path d="M97.2004 467.448C150.883 467.448 194.401 423.93 194.401 370.247C194.401 316.565 150.883 273.047 97.2004 273.047C43.5181 273.047 0 316.565 0 370.247C0 423.93 43.5181 467.448 97.2004 467.448Z" fill="#E6E6E6"/>
<path d="M123.462 512.186L99.552 527.002V426.851L126.352 410.243C128.568 408.87 130.187 406.715 130.889 404.205V404.205C128.328 403.716 125.678 404.206 123.462 405.579L99.5519 420.395V381.559C99.5519 374.046 98.6305 366.562 96.8083 359.273C94.9862 366.562 94.0648 374.046 94.0648 381.559V444.947L58.791 423.089C55.9744 421.343 52.7156 420.444 49.4025 420.499C50.8285 423.49 53.0842 426.008 55.9008 427.753L94.065 451.402V680.523H99.552V533.458L126.352 516.85C128.568 515.477 130.187 513.322 130.889 510.812V510.812C128.328 510.323 125.678 510.813 123.462 512.186V512.186Z" fill="#CCCCCC"/>
<path d="M167.808 334.709C260.236 334.709 335.163 259.782 335.163 167.355C335.163 74.9272 260.236 0 167.808 0C75.3809 0 0.453735 74.9272 0.453735 167.355C0.453735 259.782 75.3809 334.709 167.808 334.709Z" fill="#E6E6E6"/>
<path d="M213.024 411.737L171.857 437.247V264.811L218 236.217C221.815 233.853 224.603 230.143 225.811 225.82L225.811 225.82H225.811C221.403 224.978 216.839 225.823 213.024 228.187L171.857 253.696V186.831C171.857 173.896 170.271 161.009 167.133 148.46C163.996 161.009 162.41 173.896 162.41 186.831V295.968L101.677 258.334C96.8276 255.329 91.2166 253.781 85.5123 253.874C87.9677 259.024 91.8513 263.359 96.7008 266.364L162.41 307.082V680.89H171.857V448.361L218 419.767C221.815 417.404 224.603 413.693 225.811 409.37L225.811 409.37H225.811C221.403 408.528 216.839 409.373 213.024 411.737V411.737Z" fill="#CCCCCC"/>
<path d="M856.746 680H66.7461V682H856.746V680Z" fill="#3F3D56"/>
<path d="M653.29 301.934L614.082 324.571L636.719 363.78L675.928 341.143L653.29 301.934Z" fill="#FF6584"/>
<path d="M653.788 371.952L630.15 331.01L671.092 307.373L694.729 348.315L653.788 371.952ZM632.883 331.743L654.521 369.219L691.997 347.583L670.359 310.106L632.883 331.743Z" fill="#2F2E41"/>
<path d="M617.108 481.969C627.602 481.969 636.108 473.462 636.108 462.969C636.108 452.475 627.602 443.969 617.108 443.969C606.615 443.969 598.108 452.475 598.108 462.969C598.108 473.462 606.615 481.969 617.108 481.969Z" fill="#D0CDE1"/>
<path d="M631.108 482.969C627.153 482.969 623.286 481.796 619.997 479.598C616.708 477.4 614.145 474.277 612.631 470.622C611.117 466.968 610.721 462.946 611.493 459.067C612.264 455.187 614.169 451.623 616.966 448.826C619.763 446.029 623.327 444.125 627.207 443.353C631.086 442.581 635.108 442.977 638.762 444.491C642.417 446.005 645.54 448.568 647.738 451.857C649.935 455.146 651.108 459.013 651.108 462.969C651.108 468.273 649.001 473.36 645.251 477.111C641.5 480.861 636.413 482.969 631.108 482.969V482.969ZM631.108 444.969C627.548 444.969 624.068 446.024 621.108 448.002C618.148 449.98 615.841 452.791 614.479 456.08C613.116 459.369 612.76 462.988 613.454 466.48C614.149 469.972 615.863 473.179 618.38 475.696C620.898 478.214 624.105 479.928 627.597 480.623C631.088 481.317 634.708 480.961 637.997 479.598C641.286 478.236 644.097 475.929 646.075 472.969C648.053 470.009 649.108 466.529 649.108 462.969C649.108 458.195 647.212 453.616 643.836 450.241C640.461 446.865 635.882 444.969 631.108 444.969V444.969Z" fill="#2F2E41"/>
<path d="M736.97 684.549H552.97C550.717 684.546 548.556 683.65 546.963 682.056C545.369 680.463 544.473 678.302 544.47 676.049V505.049C544.473 502.795 545.369 500.635 546.963 499.041C548.556 497.448 550.717 496.551 552.97 496.549H736.97C739.224 496.551 741.384 497.448 742.978 499.041C744.571 500.635 745.468 502.795 745.47 505.049V676.049C745.468 678.302 744.571 680.463 742.978 682.056C741.384 683.65 739.224 684.546 736.97 684.549V684.549Z" fill="#FFD700"/>
<path d="M785.857 479.622C784.782 497.262 760.953 510.163 760.953 510.163C760.953 510.163 738.867 494.464 739.942 476.824C741.017 459.183 764.846 446.282 764.846 446.282C764.846 446.282 786.932 461.981 785.857 479.622Z" fill="#3F3D56"/>
<path d="M786.936 534.661C769.292 533.641 756.317 509.852 756.317 509.852C756.317 509.852 771.947 487.717 789.591 488.737C807.234 489.757 820.21 513.546 820.21 513.546C820.21 513.546 804.58 535.681 786.936 534.661Z" fill="#3F3D56"/>
<path opacity="0.1" d="M744.97 517.469V582.749L680.04 497.049H729.5L744.97 517.469Z" fill="black"/>
<path d="M800.092 629.214C798.778 629.217 797.481 628.914 796.304 628.331C795.127 627.747 794.101 626.898 793.308 625.851L658.033 447.31C657.359 446.42 656.867 445.406 656.584 444.326C656.302 443.246 656.235 442.121 656.388 441.016C656.54 439.91 656.909 438.845 657.473 437.882C658.037 436.918 658.785 436.075 659.675 435.401L679.602 420.304C680.491 419.63 681.505 419.137 682.585 418.855C683.665 418.573 684.79 418.506 685.896 418.658C687.001 418.811 688.066 419.18 689.03 419.744C689.993 420.308 690.835 421.056 691.509 421.946L826.784 600.486C827.458 601.376 827.95 602.39 828.232 603.47C828.515 604.55 828.582 605.675 828.429 606.78C828.277 607.886 827.908 608.951 827.344 609.914C826.78 610.878 826.032 611.72 825.142 612.395L805.215 627.492C803.742 628.611 801.942 629.216 800.092 629.214V629.214Z" fill="#FFD700"/>
<path d="M745.945 490.48L711.672 516.448L737.64 550.722L771.913 524.754L745.945 490.48Z" fill="#3F3D56"/>
<path d="M569.637 359.873L557.919 403.605L601.65 415.323L613.368 371.591L569.637 359.873Z" fill="#D0CDE1"/>
<path d="M583.099 421.861L537.436 409.626L549.671 363.962L595.334 376.197L583.099 421.861ZM539.885 408.212L581.685 419.412L592.885 377.611L551.085 366.411L539.885 408.212Z" fill="#2F2E41"/>
<path d="M390.749 527.999C391.951 526.848 392.885 525.448 393.487 523.896C394.089 522.345 394.343 520.68 394.232 519.02C394.121 517.36 393.647 515.744 392.844 514.287C392.041 512.829 390.928 511.566 389.584 510.585L371.22 362.555L347.494 369.609L373.108 513.668C371.61 516.035 371.033 518.87 371.485 521.635C371.938 524.4 373.389 526.903 375.563 528.669C377.738 530.436 380.484 531.343 383.283 531.22C386.082 531.096 388.738 529.95 390.749 527.999Z" fill="#FFB8B8"/>
<path d="M412.742 669.489H426.619L433.224 615.964H412.742V669.489Z" fill="#FFB8B8"/>
<path d="M453.382 682.375H409.769V665.524H438.073C442.133 665.524 446.027 667.137 448.898 670.008C451.769 672.879 453.382 676.773 453.382 680.834V682.375V682.375Z" fill="#2F2E41"/>
<path d="M316.779 647.875L329.786 652.713L354.636 604.848L335.44 597.707L316.779 647.875Z" fill="#FFB8B8"/>
<path d="M350.377 674.12L309.5 658.915L315.375 643.122L341.903 652.99C345.709 654.405 348.796 657.274 350.486 660.966C352.176 664.658 352.33 668.87 350.914 672.676L350.377 674.12L350.377 674.12Z" fill="#2F2E41"/>
<path d="M387.848 324.127C402.339 324.127 414.087 312.379 414.087 297.888C414.087 283.397 402.339 271.649 387.848 271.649C373.357 271.649 361.609 283.397 361.609 297.888C361.609 312.379 373.357 324.127 387.848 324.127Z" fill="#FFB8B8"/>
<path d="M346.807 365.23C345.986 341.062 371.386 324.295 392.757 335.611C395.48 337.053 423.595 360.939 424.654 375.772C425.714 390.606 427.833 414.975 427.833 414.975L457.5 636.418L393.928 633.239L401.605 568.641L360.284 634.332L310.225 618.406L371.678 441.463C371.678 441.463 348.052 401.856 346.807 365.23Z" fill="#2F2E41"/>
<path d="M347.308 373.644L351.39 426.712C351.432 427.266 351.683 427.784 352.091 428.162C352.498 428.539 353.034 428.749 353.589 428.749H371.551C371.914 428.749 372.271 428.659 372.592 428.488C372.912 428.317 373.185 428.07 373.386 427.768C373.588 427.466 373.711 427.119 373.747 426.758C373.782 426.396 373.728 426.032 373.588 425.697L351.545 372.628C351.343 372.143 350.976 371.746 350.508 371.508C350.041 371.27 349.503 371.207 348.993 371.329C348.483 371.451 348.033 371.752 347.724 372.176C347.415 372.6 347.267 373.12 347.308 373.644V373.644Z" fill="#2F2E41"/>
<path d="M439.548 518.804C440.607 517.52 441.371 516.02 441.787 514.409C442.203 512.798 442.261 511.115 441.957 509.479C441.652 507.843 440.992 506.294 440.024 504.94C439.056 503.587 437.803 502.462 436.353 501.646L400.792 356.782L378.054 366.565L420.352 506.636C419.141 509.162 418.899 512.045 419.672 514.738C420.445 517.431 422.179 519.746 424.545 521.246C426.912 522.746 429.746 523.326 432.511 522.876C435.276 522.426 437.78 520.977 439.548 518.804V518.804Z" fill="#FFB8B8"/>
<path d="M381.214 343.986C381.214 343.986 373.797 358.82 381.214 385.308C388.63 411.797 393.928 434.047 393.928 434.047C393.928 434.047 410.881 423.451 418.297 426.63C425.714 429.809 406.565 356.019 406.565 356.019C406.565 356.019 394.988 331.272 381.214 343.986Z" fill="#2F2E41"/>
<path d="M394.005 301.982C394.36 296.538 401.228 296.351 406.684 296.3C412.14 296.248 418.662 296.443 421.749 291.944C423.789 288.971 423.4 284.844 421.714 281.656C420.029 278.469 417.256 276.017 414.529 273.659C407.488 267.57 400.231 261.53 391.777 257.632C383.323 253.735 373.416 252.16 364.649 255.289C353.879 259.132 339.32 278.915 338.063 290.281C336.805 301.647 341.348 313.233 349.004 321.727C356.661 330.22 374.186 326.793 385.215 329.815C378.51 320.325 382.93 303.082 393.671 298.651L394.005 301.982Z" fill="#2F2E41"/>
<rect x="544" y="559" width="202" height="70" rx="10" fill="#90DED7"/>
</g>
<defs>
<clipPath id="clip0">
<rect width="856.746" height="690.553" fill="white"/>
</clipPath>
</defs>
</svg>
