<svg width="512" height="512" viewBox="0 0 512 512" fill="none" xmlns="http://www.w3.org/2000/svg">
<path d="M302.776 32H209.224L211.51 48H300.49L302.776 32Z" fill="white"/>
<path d="M192.2 272.777C181.936 253.618 172.529 227.093 164.241 193.94C150.268 138.05 144.108 81.418 144.047 80.853C143.931 79.7682 144.038 78.671 144.361 77.6291C144.685 76.5871 145.218 75.6223 145.928 74.794L147.201 73.309C131.125 76.175 122.962 77.727 118.825 78.564L49.8 416H107.907C116.99 359.812 128 286.95 128 264V208C128 205.878 128.843 203.843 130.343 202.343C131.843 200.843 133.878 200 136 200C138.122 200 140.157 200.843 141.657 202.343C143.157 203.843 144 205.878 144 208V264C144 283.458 136.793 335.054 129.2 384H176C178.122 384 180.157 384.843 181.657 386.343C183.157 387.843 184 389.878 184 392C184 394.122 183.157 396.157 181.657 397.657C180.157 399.157 178.122 400 176 400H126.694C121.288 434.134 116.068 464.985 113.494 480H232V311.084C217.375 307.685 204.018 294.842 192.2 272.777Z" fill="white"/>
<path d="M230.417 293.484L194.579 42.618L160.347 82.555C161.889 95.486 168.023 143.155 179.796 190.199C197.91 262.587 216.973 286.548 230.417 293.484V293.484Z" fill="white"/>
<path d="M332.2 190.2C343.974 143.152 350.107 95.487 351.648 82.556L317.418 42.62L281.584 293.483C295.028 286.547 314.09 262.586 332.2 190.2V190.2Z" fill="white"/>
<path d="M364.8 73.308L366.073 74.794C366.783 75.6224 367.316 76.5872 367.639 77.6292C367.963 78.6711 368.069 79.7682 367.953 80.853C367.893 81.418 361.732 138.053 347.76 193.94C339.472 227.093 330.06 253.618 319.801 272.777C307.98 294.842 294.624 307.685 280.001 311.084V480H398.5C395.928 464.985 390.708 434.134 385.3 400H336C333.878 400 331.843 399.157 330.343 397.657C328.843 396.157 328 394.122 328 392C328 389.878 328.843 387.843 330.343 386.343C331.843 384.843 333.878 384 336 384H382.8C375.207 335.054 368 283.458 368 264V208C368 205.878 368.843 203.843 370.343 202.343C371.843 200.843 373.878 200 376 200C378.122 200 380.157 200.843 381.657 202.343C383.157 203.843 384 205.878 384 208V264C384 286.95 395.01 359.812 404.091 416H462.2L393.177 78.564C389.041 77.727 380.878 76.174 364.8 73.308V73.308Z" fill="white"/>
<path d="M298.2 64H213.8L247.924 302.868H247.916C247.971 303.243 247.999 303.621 248 304V448H264V304C264.003 303.621 264.033 303.243 264.089 302.869H264.081L298.2 64Z" fill="white"/>
</svg>
