<svg width="512" height="512" viewBox="0 0 512 512" fill="none" xmlns="http://www.w3.org/2000/svg">
<path d="M400 104H342.875L343.975 88.57C343.981 88.477 343.935 88.391 343.938 88.297C343.941 88.203 343.998 88.105 343.998 87.997V56C343.998 53.8783 343.155 51.8434 341.655 50.3431C340.155 48.8429 338.12 48 335.998 48H296V24C296 21.8783 295.157 19.8434 293.657 18.3431C292.157 16.8429 290.122 16 288 16H192C189.878 16 187.843 16.8429 186.343 18.3431C184.843 19.8434 184 21.8783 184 24V48H112C110.418 48.0003 108.872 48.4697 107.556 49.3488C106.241 50.2279 105.216 51.4772 104.611 52.9388C104.005 54.4004 103.847 56.0086 104.155 57.5603C104.464 59.1119 105.226 60.5372 106.344 61.656L136.236 91.549L151.47 304.818C147.012 305.931 142.97 308.305 139.826 311.656C136.682 315.006 134.57 319.192 133.742 323.711L104.133 486.57C103.924 487.722 103.97 488.907 104.268 490.039C104.567 491.172 105.111 492.225 105.861 493.125C106.612 494.024 107.55 494.748 108.611 495.245C109.672 495.742 110.829 495.999 112 496H160C161.486 496 162.942 495.587 164.206 494.805C165.47 494.024 166.492 492.907 167.156 491.578L180.945 464H307.055L320.844 491.578C321.509 492.907 322.53 494.024 323.794 494.805C325.058 495.587 326.514 496 328 496H376C377.171 495.999 378.328 495.742 379.389 495.245C380.45 494.748 381.388 494.024 382.139 493.125C382.889 492.225 383.433 491.172 383.732 490.039C384.03 488.907 384.076 487.722 383.867 486.57L354.258 323.711C353.258 318.179 350.345 313.174 346.03 309.571C341.714 305.969 336.27 303.997 330.648 304H328.589L331.229 267.027L402.875 239.469C404.384 238.888 405.682 237.863 406.596 236.53C407.511 235.196 408.001 233.617 408 232V112C408 109.878 407.157 107.843 405.657 106.343C404.157 104.843 402.122 104 400 104ZM200 32H280V48H200V32ZM147.312 80L131.312 64H328V80H147.312ZM278.4 259.2C277.771 258.357 276.983 257.647 276.079 257.11C275.175 256.573 274.173 256.22 273.133 256.071C272.092 255.923 271.032 255.981 270.014 256.243C268.996 256.506 268.039 256.967 267.2 257.6L240 278L212.8 257.6C211.962 256.943 211.001 256.461 209.973 256.18C208.946 255.9 207.873 255.828 206.818 255.967C205.762 256.107 204.745 256.456 203.826 256.994C202.907 257.532 202.104 258.248 201.466 259.1C200.827 259.952 200.365 260.923 200.107 261.956C199.848 262.989 199.798 264.063 199.96 265.116C200.123 266.168 200.493 267.178 201.05 268.085C201.608 268.993 202.341 269.78 203.206 270.4L232 292V304H167.445L152.594 96H327.406L312.555 304H248V292L276.8 270.4C277.642 269.771 278.352 268.982 278.888 268.078C279.424 267.174 279.777 266.173 279.926 265.132C280.074 264.092 280.016 263.032 279.754 262.014C279.493 260.996 279.032 260.04 278.4 259.2V259.2ZM330.65 320C332.524 320 334.339 320.658 335.778 321.858C337.217 323.059 338.189 324.726 338.525 326.57L366.414 480H332.945L319.156 452.422C318.491 451.093 317.47 449.976 316.206 449.195C314.942 448.413 313.486 448 312 448H176C174.514 448 173.058 448.413 171.794 449.195C170.53 449.976 169.509 451.093 168.844 452.422L155.055 480H121.586L149.486 326.57C149.82 324.727 150.79 323.059 152.228 321.858C153.666 320.657 155.481 320 157.354 320H330.654H330.65ZM339.45 152H360V202.234L335.269 210.478L339.45 152ZM392 226.508L332.489 249.4L334.035 227.754L370.535 215.591C372.128 215.06 373.513 214.041 374.494 212.679C375.475 211.316 376.002 209.679 376 208V144C376 141.878 375.157 139.843 373.657 138.343C372.157 136.843 370.122 136 368 136H340.589L341.731 120H392V226.508ZM216 424C216 425.582 215.531 427.129 214.652 428.445C213.773 429.76 212.523 430.786 211.061 431.391C209.6 431.997 207.991 432.155 206.439 431.846C204.887 431.538 203.462 430.776 202.343 429.657C201.224 428.538 200.462 427.113 200.154 425.561C199.845 424.009 200.003 422.4 200.609 420.939C201.214 419.477 202.24 418.227 203.555 417.348C204.871 416.469 206.418 416 208 416C210.122 416 212.157 416.843 213.657 418.343C215.157 419.843 216 421.878 216 424ZM248 424C248 425.582 247.531 427.129 246.652 428.445C245.773 429.76 244.523 430.786 243.061 431.391C241.6 431.997 239.991 432.155 238.439 431.846C236.887 431.538 235.462 430.776 234.343 429.657C233.224 428.538 232.462 427.113 232.154 425.561C231.845 424.009 232.003 422.4 232.609 420.939C233.214 419.477 234.24 418.227 235.555 417.348C236.871 416.469 238.418 416 240 416C242.122 416 244.157 416.843 245.657 418.343C247.157 419.843 248 421.878 248 424ZM280 424C280 425.582 279.531 427.129 278.652 428.445C277.773 429.76 276.523 430.786 275.061 431.391C273.6 431.997 271.991 432.155 270.439 431.846C268.887 431.538 267.462 430.776 266.343 429.657C265.224 428.538 264.462 427.113 264.154 425.561C263.845 424.009 264.003 422.4 264.609 420.939C265.214 419.477 266.24 418.227 267.555 417.348C268.871 416.469 270.418 416 272 416C274.122 416 276.157 416.843 277.657 418.343C279.157 419.843 280 421.878 280 424ZM240 336C233.671 336 227.484 337.877 222.222 341.393C216.959 344.909 212.858 349.907 210.436 355.754C208.014 361.601 207.38 368.035 208.615 374.243C209.85 380.45 212.897 386.152 217.373 390.627C221.848 395.103 227.55 398.15 233.757 399.385C239.965 400.62 246.399 399.986 252.246 397.564C258.093 395.142 263.091 391.041 266.607 385.778C270.123 380.516 272 374.329 272 368C271.992 359.516 268.617 351.381 262.618 345.382C256.619 339.383 248.484 336.008 240 336ZM240 384C236.835 384 233.742 383.062 231.111 381.304C228.48 379.545 226.429 377.047 225.218 374.123C224.007 371.199 223.69 367.982 224.307 364.879C224.925 361.775 226.449 358.924 228.686 356.686C230.924 354.449 233.775 352.925 236.879 352.307C239.982 351.69 243.199 352.007 246.123 353.218C249.047 354.429 251.545 356.48 253.304 359.111C255.062 361.742 256 364.835 256 368C255.994 372.242 254.307 376.308 251.308 379.308C248.308 382.307 244.242 383.994 240 384Z" fill="white"/>
</svg>
