<svg width="448" height="448" viewBox="0 0 448 448" fill="none" xmlns="http://www.w3.org/2000/svg">
<path d="M448 112C448 107.582 444.418 104 440 104H8C3.58203 104 0 107.582 0 112V120H448V112Z" fill="white"/>
<path d="M8 344H440C444.418 344 448 340.418 448 336V136H0V336C0 340.418 3.58203 344 8 344ZM242.344 218.344L257.984 202.703C256.691 199.281 256.02 195.656 256 192C256 187.582 259.582 184 264 184C268.418 184 272 187.582 272 192C272 207.137 298.289 224 336 224C373.711 224 400 207.137 400 192C400 187.582 403.582 184 408 184C412.418 184 416 187.582 416 192C415.98 195.656 415.309 199.281 414.016 202.703L429.656 218.344C431.734 220.352 432.57 223.328 431.836 226.125C431.105 228.922 428.922 231.105 426.125 231.836C423.328 232.57 420.352 231.734 418.344 229.656L405.113 216.426C402.223 219.371 399.031 222 395.586 224.273L421.656 250.344C423.734 252.352 424.57 255.328 423.836 258.125C423.105 260.922 420.922 263.105 418.125 263.836C415.328 264.57 412.352 263.734 410.344 261.656L380.742 232.055C377.441 233.34 374.078 234.457 370.664 235.398L383.199 260.426C385.176 264.379 383.57 269.184 379.617 271.16C375.66 273.137 370.855 271.531 368.879 267.574L354.48 238.727C351.078 239.191 347.625 239.527 344.078 239.77V272C344.078 276.418 340.5 280 336.078 280C331.66 280 328.078 276.418 328.078 272V239.77C324.52 239.559 321.062 239.191 317.68 238.727L303.281 267.574C301.305 271.531 296.5 273.137 292.543 271.16C288.59 269.184 286.984 264.379 288.961 260.426L301.488 235.367C298.031 234.422 294.629 233.297 291.289 232L261.688 261.602C258.551 264.633 253.559 264.59 250.473 261.504C247.387 258.418 247.344 253.426 250.375 250.289L276.449 224.215C273.004 221.945 269.809 219.316 266.922 216.367L253.688 229.602C250.551 232.633 245.559 232.59 242.473 229.504C239.387 226.418 239.344 221.426 242.375 218.289L242.344 218.344ZM18.3438 218.344L33.9844 202.703C32.6914 199.281 32.0195 195.656 32 192C32 187.582 35.582 184 40 184C44.418 184 48 187.582 48 192C48 207.137 74.2891 224 112 224C149.711 224 176 207.137 176 192C176 187.582 179.582 184 184 184C188.418 184 192 187.582 192 192C191.98 195.656 191.309 199.281 190.016 202.703L205.656 218.344C207.734 220.352 208.57 223.328 207.836 226.125C207.105 228.922 204.922 231.105 202.125 231.836C199.328 232.57 196.352 231.734 194.344 229.656L181.113 216.426C178.223 219.371 175.031 222 171.586 224.273L197.656 250.344C199.734 252.352 200.57 255.328 199.836 258.125C199.105 260.922 196.922 263.105 194.125 263.836C191.328 264.57 188.352 263.734 186.344 261.656L156.742 232.055C153.441 233.34 150.078 234.457 146.664 235.398L159.199 260.426C161.176 264.379 159.57 269.184 155.617 271.16C151.66 273.137 146.855 271.531 144.879 267.574L130.48 238.727C127.078 239.191 123.625 239.527 120.078 239.77V272C120.078 276.418 116.5 280 112.078 280C107.66 280 104.078 276.418 104.078 272V239.77C100.52 239.559 97.0625 239.191 93.6797 238.727L79.2812 267.574C77.3047 271.531 72.5 273.137 68.543 271.16C64.5898 269.184 62.9844 264.379 64.9609 260.426L77.4883 235.367C74.0313 234.422 70.6289 233.297 67.2891 232L37.6875 261.602C35.6797 263.68 32.7031 264.516 29.9062 263.781C27.1094 263.051 24.9258 260.863 24.1953 258.066C23.4609 255.27 24.2969 252.297 26.375 250.289L52.4492 224.215C49.0039 221.945 45.8086 219.316 42.9219 216.367L29.6562 229.656C26.5156 232.688 21.5273 232.645 18.4414 229.559C15.3555 226.473 15.3125 221.484 18.3438 218.344Z" fill="white"/>
</svg>
