<svg width="512" height="512" viewBox="0 0 512 512" fill="none" xmlns="http://www.w3.org/2000/svg">
<path d="M312 488H440C444.961 487.994 449.799 486.452 453.849 483.588C457.9 480.723 460.965 476.676 462.624 472H289.363C291.017 476.682 294.082 480.735 298.137 483.601C302.191 486.466 307.035 488.004 312 488V488Z" fill="white"/>
<path d="M216 328C194.79 328.024 174.456 336.46 159.458 351.458C144.46 366.456 136.024 386.79 136 408H216C218.122 408 220.157 408.843 221.657 410.343C223.157 411.843 224 413.878 224 416C224 443.09 210.574 467.356 189.5 483.512C200.487 487.366 212.183 488.775 223.771 487.642C235.359 486.509 246.56 482.86 256.592 476.951C266.624 471.041 275.246 463.013 281.855 453.428C288.464 443.842 292.901 432.929 294.857 421.452C296.813 409.974 296.24 398.207 293.179 386.974C290.118 375.74 284.641 365.31 277.132 356.411C269.624 347.513 260.263 340.36 249.704 335.453C239.146 330.546 227.643 328.002 216 328Z" fill="white"/>
<path d="M136 487.635C142.901 487.019 149.704 485.579 156.263 483.345L136 446.872V487.635Z" fill="white"/>
<path d="M148.591 436.591L170.891 476.735C178.505 472.396 185.337 466.808 191.1 460.206L148.591 436.591Z" fill="white"/>
<path d="M207.51 424H158.872L200.2 446.961C204.023 439.82 206.501 432.037 207.51 424V424Z" fill="white"/>
<path d="M48.49 424C49.4992 432.037 51.9771 439.82 55.8 446.961L97.128 424H48.49Z" fill="white"/>
<path d="M120 487.635V446.872L99.7371 483.345C106.296 485.579 113.099 487.019 120 487.635V487.635Z" fill="white"/>
<path d="M64.8999 460.206C70.6623 466.808 77.4927 472.395 85.1059 476.735L107.406 436.591L64.8999 460.206Z" fill="white"/>
<path d="M464 88H340.512L327.812 30.281C327.42 28.5007 326.432 26.9075 325.012 25.7653C323.591 24.6231 321.823 24.0003 320 24H232C229.878 24 227.843 24.8429 226.343 26.3431C224.843 27.8434 224 29.8783 224 32C224 34.1217 224.843 36.1566 226.343 37.6569C227.843 39.1571 229.878 40 232 40H313.568L324.128 88H288V136H334.688L338.208 152H288V344.6C301.301 359.657 309.532 378.516 311.526 398.507C313.52 418.499 309.178 438.612 299.113 456H464V152H354.592L351.072 136H464V88Z" fill="white"/>
<path d="M216 312C218.8 312 221.563 312.127 224.3 312.363C225.561 294.514 231.2 264 248 264C250.122 264 252.157 263.157 253.657 261.657C255.157 260.157 256 258.122 256 256C256 253.878 255.157 251.843 253.657 250.343C252.157 248.843 250.122 248 248 248C236.026 248 220.1 254.6 212.239 286.06C210.167 294.679 208.85 303.462 208.303 312.309C210.843 312.107 213.409 312.004 216 312Z" fill="white"/>
</svg>
