<svg width="512" height="512" viewBox="0 0 512 512" fill="none" xmlns="http://www.w3.org/2000/svg">
<path d="M64 288H152C154.122 288 156.157 288.843 157.657 290.343C159.157 291.843 160 293.878 160 296V300.686L170.343 290.343C171.086 289.6 171.968 289.011 172.938 288.609C173.909 288.207 174.949 288 176 288C177.051 288 178.091 288.207 179.062 288.609C180.032 289.011 180.914 289.6 181.657 290.343L224 332.686V272H64V288Z" fill="white"/>
<path d="M176 160V207.997V208.003V224H192V160H176Z" fill="white"/>
<path d="M163.262 319.988L175.946 307.303L220.626 351.983L207.941 364.667L163.262 319.988Z" fill="white"/>
<path d="M160 368H188.686L160 339.314V368Z" fill="white"/>
<path d="M64 384H224V400H64V384Z" fill="white"/>
<path d="M64 304H80V368H64V304Z" fill="white"/>
<path d="M96 304H112V368H96V304Z" fill="white"/>
<path d="M96 224H124.686L96 195.314V224Z" fill="white"/>
<path d="M99.2837 175.996L111.968 163.311L156.648 207.991L143.963 220.675L99.2837 175.996Z" fill="white"/>
<path d="M64 240H224V256H64V240Z" fill="white"/>
<path d="M80 176.003V175.997V160H64V224H80V176.003Z" fill="white"/>
<path d="M32 80H48V432H32V80Z" fill="white"/>
<path d="M144 319.998V304H128V368H144V320.002V319.998Z" fill="white"/>
<path d="M272 368H312V336H304C301.878 336 299.843 335.157 298.343 333.657C296.843 332.157 296 330.122 296 328V296C296 293.878 296.843 291.843 298.343 290.343C299.843 288.843 301.878 288 304 288H416C418.122 288 420.157 288.843 421.657 290.343C423.157 291.843 424 293.878 424 296V328C424 330.122 423.157 332.157 421.657 333.657C420.157 335.157 418.122 336 416 336H408V368H448V272H272V368Z" fill="white"/>
<path d="M272 240H448V256H272V240Z" fill="white"/>
<path d="M464 224H480V432H464V224Z" fill="white"/>
<path d="M360 224C366.363 223.993 372.463 221.462 376.962 216.962C381.462 212.463 383.993 206.363 384 200V176H336V200C336.007 206.363 338.538 212.463 343.038 216.962C347.537 221.462 353.637 223.993 360 224V224Z" fill="white"/>
<path d="M272 384H448V400H272V384Z" fill="white"/>
<path d="M312 304H408V320H312V304Z" fill="white"/>
<path d="M328 336H392V368H328V336Z" fill="white"/>
<path d="M64 96H224V112H64V96Z" fill="white"/>
<path d="M240 80H256V432H240V80Z" fill="white"/>
<path d="M64 144H88C90.1217 144 92.1566 144.843 93.6569 146.343C95.1571 147.843 96 149.878 96 152V156.686L106.343 146.343C107.086 145.6 107.968 145.011 108.938 144.609C109.909 144.207 110.949 144 112 144C113.051 144 114.091 144.207 115.062 144.609C116.032 145.011 116.914 145.6 117.657 146.343L160 188.686V152C160 149.878 160.843 147.843 162.343 146.343C163.843 144.843 165.878 144 168 144H200C202.122 144 204.157 144.843 205.657 146.343C207.157 147.843 208 149.878 208 152V224H224V128H64V144Z" fill="white"/>
<path d="M376 144C373.879 144.002 371.846 144.846 370.346 146.346C368.846 147.846 368.002 149.879 368 152V125.842C370.432 124.44 372.451 122.423 373.855 119.993C375.26 117.563 375.999 114.807 376 112V104L368 96L360 104L352 96L344 104V112C344.001 114.807 344.74 117.563 346.145 119.993C347.549 122.423 349.568 124.44 352 125.842V160H376C378.121 159.998 380.154 159.154 381.654 157.654C383.154 156.154 383.998 154.121 384 152V144H376Z" fill="white"/>
</svg>
