<svg width="274" height="251" viewBox="0 0 274 251" fill="none" xmlns="http://www.w3.org/2000/svg">
<path d="M91.9277 126.922L106.843 151.784L118.243 140.384L93.3809 125.469L91.9277 126.922Z" fill="white"/>
<path d="M217.375 29.9371C217.375 28.6939 217.869 27.5016 218.748 26.6225C219.627 25.7435 220.819 25.2496 222.062 25.2496C224.138 25.2814 226.202 25.5583 228.212 26.0746C227.107 24.4999 225.543 23.3036 223.734 22.6481C221.925 21.9925 219.958 21.9094 218.1 22.4101C216.243 22.9109 214.584 23.9711 213.349 25.4469C212.115 26.9227 211.364 28.7427 211.199 30.6598C211.035 32.5768 211.464 34.4981 212.429 36.1629C213.393 37.8277 214.847 39.1553 216.592 39.9655C218.338 40.7757 220.29 41.0293 222.184 40.6919C224.078 40.3544 225.823 39.4423 227.181 38.0793C227.79 37.4491 228.309 36.7376 228.723 35.9652C226.61 35.0951 224.348 34.64 222.062 34.6246C220.819 34.6246 219.627 34.1307 218.748 33.2517C217.869 32.3726 217.375 31.1803 217.375 29.9371Z" fill="white"/>
<path d="M248.411 39.9545L252.062 16.3436C252.371 14.3437 252.244 12.3009 251.69 10.3545C251.136 8.4082 250.169 6.60425 248.855 5.06588C247.54 3.52751 245.909 2.29095 244.073 1.44064C242.237 0.590341 240.239 0.146326 238.215 0.138917C237.505 0.138709 236.795 0.191984 236.092 0.298291L163.904 11.0795C156.956 12.1312 150.524 15.3709 145.543 20.328L5.10598 160.719C3.79991 162.024 2.76386 163.575 2.057 165.281C1.35015 166.987 0.986328 168.816 0.986328 170.663C0.986328 172.51 1.35015 174.339 2.057 176.045C2.76386 177.751 3.79991 179.302 5.10598 180.608L71.3966 246.894C74.075 249.453 77.6368 250.881 81.3411 250.881C85.0455 250.881 88.6073 249.453 91.2857 246.894L172.773 165.406C179.195 209.586 198.559 240.875 222.062 240.875C250.975 240.875 273.625 193.531 273.625 133.062C273.625 92.8811 263.612 58.503 248.411 39.9545ZM148.436 57.1624L165.011 40.5874C165.443 40.1396 165.96 39.7825 166.532 39.5369C167.104 39.2912 167.719 39.1619 168.342 39.1565C168.964 39.1511 169.581 39.2697 170.157 39.5054C170.733 39.7411 171.257 40.0891 171.697 40.5293C172.137 40.9694 172.485 41.4927 172.721 42.0688C172.956 42.6449 173.075 43.2621 173.07 43.8845C173.064 44.5069 172.935 45.122 172.689 45.6939C172.444 46.2658 172.087 46.7831 171.639 47.2155L158.378 60.4764L171.639 73.7327L178.267 67.1045C179.151 66.2507 180.335 65.7782 181.564 65.7889C182.793 65.7996 183.969 66.2925 184.838 67.1616C185.707 68.0307 186.2 69.2064 186.211 70.4355C186.221 71.6645 185.749 72.8486 184.895 73.7327L178.267 80.3608L191.523 93.6217L204.784 80.3608C205.217 79.9131 205.734 79.556 206.306 79.3103C206.878 79.0646 207.493 78.9353 208.115 78.9299C208.737 78.9245 209.355 79.0431 209.931 79.2788C210.507 79.5145 211.03 79.8626 211.47 80.3027C211.91 80.7428 212.259 81.2662 212.494 81.8422C212.73 82.4183 212.849 83.0356 212.843 83.658C212.838 84.2804 212.708 84.8955 212.463 85.4674C212.217 86.0393 211.86 86.5565 211.412 86.9889L194.837 103.564C193.958 104.443 192.766 104.936 191.523 104.936C190.28 104.936 189.088 104.443 188.209 103.564L148.436 63.7905C147.557 62.9114 147.063 61.7194 147.063 60.4764C147.063 59.2335 147.557 58.0414 148.436 57.1624V57.1624ZM97.9138 200.492L84.6529 213.748C83.7654 214.582 82.5885 215.037 81.3712 215.018C80.154 214.999 78.9918 214.508 78.1306 213.647C77.2695 212.786 76.7769 211.625 76.7572 210.407C76.7374 209.19 77.192 208.013 78.0247 207.125L91.281 193.864C91.7168 193.429 92.0626 192.912 92.2985 192.343C92.5343 191.773 92.6558 191.163 92.6558 190.547C92.6558 189.931 92.5343 189.321 92.2985 188.752C92.0626 188.183 91.7168 187.666 91.281 187.231L84.6529 180.603C84.2175 180.167 83.7005 179.821 83.1315 179.585C82.5624 179.35 81.9525 179.228 81.3364 179.228C80.7204 179.228 80.1105 179.35 79.5414 179.585C78.9724 179.821 78.4554 180.167 78.02 180.603L71.3919 187.231C70.0861 188.537 68.5357 189.573 66.8294 190.28C65.1231 190.987 63.2943 191.351 61.4474 191.351C59.6005 191.351 57.7717 190.987 56.0654 190.28C54.3591 189.573 52.8087 188.537 51.5029 187.231L44.8747 180.603C43.5687 179.297 42.5326 177.747 41.8257 176.04C41.1189 174.334 40.7551 172.505 40.7551 170.658C40.7551 168.812 41.1189 166.983 41.8257 165.276C42.5326 163.57 43.5687 162.02 44.8747 160.714L58.131 147.458C59.0151 146.604 60.1991 146.131 61.4282 146.142C62.6572 146.153 63.8329 146.646 64.702 147.515C65.5711 148.384 66.0641 149.56 66.0748 150.789C66.0854 152.018 65.613 153.202 64.7591 154.086L51.5029 167.342C51.067 167.777 50.7213 168.294 50.4854 168.863C50.2495 169.432 50.1281 170.042 50.1281 170.658C50.1281 171.274 50.2495 171.884 50.4854 172.453C50.7213 173.023 51.067 173.539 51.5029 173.975L58.131 180.603C58.5663 181.039 59.0833 181.385 59.6524 181.62C60.2214 181.856 60.8314 181.978 61.4474 181.978C62.0634 181.978 62.6734 181.856 63.2424 181.62C63.8115 181.385 64.3285 181.039 64.7638 180.603L71.3919 173.975C72.6978 172.669 74.2481 171.633 75.9544 170.926C77.6607 170.219 79.4895 169.855 81.3364 169.855C83.1834 169.855 85.0122 170.219 86.7185 170.926C88.4248 171.633 89.9751 172.669 91.281 173.975L97.9091 180.603C99.2152 181.909 100.251 183.459 100.958 185.165C101.665 186.872 102.029 188.701 102.029 190.547C102.029 192.394 101.665 194.223 100.958 195.93C100.251 197.636 99.2152 199.186 97.9091 200.492H97.9138ZM146.392 151.812C146.075 152.34 145.658 152.8 145.163 153.167C144.668 153.533 144.106 153.799 143.509 153.948C142.912 154.098 142.291 154.128 141.682 154.037C141.074 153.947 140.489 153.737 139.961 153.42L126.526 145.358L111.817 160.067L119.879 173.501C120.52 174.567 120.71 175.844 120.409 177.051C120.108 178.257 119.34 179.295 118.274 179.935C117.208 180.575 115.931 180.766 114.725 180.465C113.518 180.164 112.481 179.396 111.84 178.33L82.0091 128.609C81.4717 127.713 81.2491 126.664 81.3765 125.627C81.5038 124.59 81.974 123.625 82.7122 122.886L89.345 116.253C90.0843 115.515 91.0489 115.045 92.0858 114.917C93.1228 114.79 94.1726 115.012 95.0685 115.55L144.789 145.381C145.854 146.021 146.621 147.059 146.922 148.265C147.223 149.471 147.032 150.747 146.392 151.812V151.812ZM160.318 138.083C159.439 138.961 158.247 139.455 157.004 139.455C155.761 139.455 154.569 138.961 153.69 138.083L113.917 98.3092C113.469 97.8768 113.112 97.3596 112.866 96.7877C112.621 96.2158 112.491 95.6007 112.486 94.9783C112.481 94.3559 112.599 93.7386 112.835 93.1626C113.071 92.5865 113.419 92.0631 113.859 91.623C114.299 91.1829 114.822 90.8348 115.398 90.5991C115.974 90.3634 116.592 90.2448 117.214 90.2502C117.837 90.2556 118.452 90.385 119.023 90.6306C119.595 90.8763 120.113 91.2334 120.545 91.6811L157.004 128.14L173.579 111.565C174.464 110.712 175.648 110.239 176.877 110.25C178.106 110.26 179.281 110.753 180.15 111.623C181.02 112.492 181.513 113.667 181.523 114.896C181.534 116.125 181.061 117.31 180.208 118.194L160.318 138.083ZM222.062 231.5C202.712 231.5 185.968 199.189 181.239 156.94L231.756 106.419C236.705 101.494 239.942 95.1102 240.99 88.2077L246.343 53.4077C243.732 48.8326 240.445 44.678 236.593 41.0842C235.229 43.3613 233.396 45.3223 231.217 46.8372C229.037 48.3521 226.56 49.3863 223.95 49.8711C221.34 50.356 218.657 50.2805 216.079 49.6496C213.5 49.0187 211.085 47.8468 208.994 46.2117C206.903 44.5765 205.184 42.5155 203.95 40.1653C202.716 37.8151 201.995 35.2294 201.836 32.5796C201.678 29.9299 202.084 27.2767 203.029 24.7959C203.973 22.3152 205.434 20.0636 207.315 18.1905C210.889 14.7846 215.637 12.8847 220.574 12.8847C225.511 12.8847 230.259 14.7846 233.833 18.1905C237.308 21.6535 239.276 26.3485 239.308 31.2545C242.718 33.7475 245.786 36.6772 248.434 39.9686L246.386 53.2858C257.092 71.3374 264.25 100.634 264.25 133.062C264.25 186.42 244.928 231.5 222.062 231.5Z" fill="white"/>
</svg>
