<svg width="512" height="512" viewBox="0 0 512 512" fill="none" xmlns="http://www.w3.org/2000/svg">
<path d="M352 64C356.418 64 360 60.4183 360 56C360 51.5817 356.418 48 352 48C347.582 48 344 51.5817 344 56C344 60.4183 347.582 64 352 64Z" fill="white"/>
<path d="M208 256H176C173.878 256 171.843 256.843 170.343 258.343C168.843 259.843 168 261.878 168 264V296C168 298.122 168.843 300.157 170.343 301.657C171.843 303.157 173.878 304 176 304H208C210.122 304 212.157 303.157 213.657 301.657C215.157 300.157 216 298.122 216 296V264C216 261.878 215.157 259.843 213.657 258.343C212.157 256.843 210.122 256 208 256V256ZM200 288H184V272H200V288Z" fill="white"/>
<path d="M272 256H240C237.878 256 235.843 256.843 234.343 258.343C232.843 259.843 232 261.878 232 264V296C232 298.122 232.843 300.157 234.343 301.657C235.843 303.157 237.878 304 240 304H272C274.122 304 276.157 303.157 277.657 301.657C279.157 300.157 280 298.122 280 296V264C280 261.878 279.157 259.843 277.657 258.343C276.157 256.843 274.122 256 272 256V256ZM264 288H248V272H264V288Z" fill="white"/>
<path d="M336 256H304C301.878 256 299.843 256.843 298.343 258.343C296.843 259.843 296 261.878 296 264V296C296 298.122 296.843 300.157 298.343 301.657C299.843 303.157 301.878 304 304 304H336C338.122 304 340.157 303.157 341.657 301.657C343.157 300.157 344 298.122 344 296V264C344 261.878 343.157 259.843 341.657 258.343C340.157 256.843 338.122 256 336 256V256ZM328 288H312V272H328V288Z" fill="white"/>
<path d="M208 320H176C173.878 320 171.843 320.843 170.343 322.343C168.843 323.843 168 325.878 168 328V360C168 362.122 168.843 364.157 170.343 365.657C171.843 367.157 173.878 368 176 368H208C210.122 368 212.157 367.157 213.657 365.657C215.157 364.157 216 362.122 216 360V328C216 325.878 215.157 323.843 213.657 322.343C212.157 320.843 210.122 320 208 320ZM200 352H184V336H200V352Z" fill="white"/>
<path d="M272 320H240C237.878 320 235.843 320.843 234.343 322.343C232.843 323.843 232 325.878 232 328V360C232 362.122 232.843 364.157 234.343 365.657C235.843 367.157 237.878 368 240 368H272C274.122 368 276.157 367.157 277.657 365.657C279.157 364.157 280 362.122 280 360V328C280 325.878 279.157 323.843 277.657 322.343C276.157 320.843 274.122 320 272 320ZM264 352H248V336H264V352Z" fill="white"/>
<path d="M336 320H304C301.878 320 299.843 320.843 298.343 322.343C296.843 323.843 296 325.878 296 328V360C296 362.122 296.843 364.157 298.343 365.657C299.843 367.157 301.878 368 304 368H336C338.122 368 340.157 367.157 341.657 365.657C343.157 364.157 344 362.122 344 360V328C344 325.878 343.157 323.843 341.657 322.343C340.157 320.843 338.122 320 336 320ZM328 352H312V336H328V352Z" fill="white"/>
<path d="M208 384H176C173.878 384 171.843 384.843 170.343 386.343C168.843 387.843 168 389.878 168 392V424C168 426.122 168.843 428.157 170.343 429.657C171.843 431.157 173.878 432 176 432H208C210.122 432 212.157 431.157 213.657 429.657C215.157 428.157 216 426.122 216 424V392C216 389.878 215.157 387.843 213.657 386.343C212.157 384.843 210.122 384 208 384ZM200 416H184V400H200V416Z" fill="white"/>
<path d="M272 384H240C237.878 384 235.843 384.843 234.343 386.343C232.843 387.843 232 389.878 232 392V424C232 426.122 232.843 428.157 234.343 429.657C235.843 431.157 237.878 432 240 432H272C274.122 432 276.157 431.157 277.657 429.657C279.157 428.157 280 426.122 280 424V392C280 389.878 279.157 387.843 277.657 386.343C276.157 384.843 274.122 384 272 384ZM264 416H248V400H264V416Z" fill="white"/>
<path d="M336 384H304C301.878 384 299.843 384.843 298.343 386.343C296.843 387.843 296 389.878 296 392V424C296 426.122 296.843 428.157 298.343 429.657C299.843 431.157 301.878 432 304 432H336C338.122 432 340.157 431.157 341.657 429.657C343.157 428.157 344 426.122 344 424V392C344 389.878 343.157 387.843 341.657 386.343C340.157 384.843 338.122 384 336 384ZM328 416H312V400H328V416Z" fill="white"/>
<path d="M408 192H400V24C400 21.8783 399.157 19.8434 397.657 18.3431C396.157 16.8429 394.122 16 392 16H312C309.878 16 307.843 16.8429 306.343 18.3431C304.843 19.8434 304 21.8783 304 24V192H288V88C288 77.3913 283.786 67.2172 276.284 59.7157C268.783 52.2143 258.609 48 248 48C237.391 48 227.217 52.2143 219.716 59.7157C212.214 67.2172 208 77.3913 208 88V192H192V104C192 101.878 191.157 99.8434 189.657 98.3431C188.157 96.8429 186.122 96 184 96H176V56C176 53.8783 175.157 51.8434 173.657 50.3431C172.157 48.8429 170.122 48 168 48H136C133.878 48 131.843 48.8429 130.343 50.3431C128.843 51.8434 128 53.8783 128 56V96H120C114.747 95.9988 109.545 97.0326 104.691 99.0424C99.8377 101.052 95.4277 103.999 91.7131 107.713C87.9985 111.428 85.0522 115.838 83.0424 120.691C81.0326 125.545 79.9988 130.747 80 136V216C80.0074 222.363 82.5384 228.463 87.0376 232.962C91.5369 237.462 97.6371 239.993 104 240H106.763L134.312 474.972C135.043 480.773 137.864 486.109 142.247 489.98C146.629 493.851 152.273 495.991 158.12 496H353.88C359.738 495.989 365.39 493.84 369.775 489.958C374.161 486.075 376.979 480.725 377.7 474.912L405.237 240H408C414.365 240 420.47 237.471 424.971 232.971C429.471 228.47 432 222.365 432 216C432 209.635 429.471 203.53 424.971 199.029C420.47 194.529 414.365 192 408 192V192ZM320 32H384V80H360C357.878 80 355.843 80.8429 354.343 82.3431C352.843 83.8434 352 85.8783 352 88C352 90.1217 352.843 92.1566 354.343 93.6569C355.843 95.1571 357.878 96 360 96H384V112H360C357.878 112 355.843 112.843 354.343 114.343C352.843 115.843 352 117.878 352 120C352 122.122 352.843 124.157 354.343 125.657C355.843 127.157 357.878 128 360 128H384V144H360C357.878 144 355.843 144.843 354.343 146.343C352.843 147.843 352 149.878 352 152C352 154.122 352.843 156.157 354.343 157.657C355.843 159.157 357.878 160 360 160H384V192H320V32ZM256 192V144H272V192H256ZM224 112H272V128H224V112ZM224 88C224 81.6348 226.529 75.5303 231.029 71.0294C235.53 66.5286 241.635 64 248 64C254.365 64 260.47 66.5286 264.971 71.0294C269.471 75.5303 272 81.6348 272 88V96H224V88ZM224 144H240V192H224V144ZM128 192V144H176V192H128ZM144 64H160V96H144V64ZM176 112V128H128V112H176ZM103.027 119.027C105.556 116.489 108.622 114.553 112 113.36V192H104C101.274 191.999 98.5686 192.464 96 193.376V136C95.991 132.847 96.6074 129.723 97.8136 126.81C99.0197 123.896 100.792 121.251 103.027 119.027V119.027ZM353.88 480H158.12C156.181 479.999 154.308 479.293 152.851 478.014C151.393 476.736 150.449 474.971 150.195 473.049L149.134 464H362.865L361.812 472.989C361.569 474.922 360.629 476.701 359.169 477.991C357.709 479.282 355.829 479.996 353.88 480V480ZM364.741 448H147.259L122.873 240H389.128L364.741 448ZM408 224H104C101.878 224 99.8434 223.157 98.3431 221.657C96.8429 220.157 96 218.122 96 216C96 213.878 96.8429 211.843 98.3431 210.343C99.8434 208.843 101.878 208 104 208H408C410.122 208 412.157 208.843 413.657 210.343C415.157 211.843 416 213.878 416 216C416 218.122 415.157 220.157 413.657 221.657C412.157 223.157 410.122 224 408 224Z" fill="white"/>
</svg>
