<svg width="512" height="512" viewBox="0 0 512 512" fill="none" xmlns="http://www.w3.org/2000/svg">
<path d="M488 360H24C21.8783 360 19.8434 360.843 18.3431 362.343C16.8429 363.843 16 365.878 16 368V464C16 466.122 16.8429 468.157 18.3431 469.657C19.8434 471.157 21.8783 472 24 472H488C490.122 472 492.157 471.157 493.657 469.657C495.157 468.157 496 466.122 496 464V368C496 365.878 495.157 363.843 493.657 362.343C492.157 360.843 490.122 360 488 360ZM480 456H32V376H480V456ZM112 432C112 429.878 112.843 427.843 114.343 426.343C115.843 424.843 117.878 424 120 424H392C394.122 424 396.157 424.843 397.657 426.343C399.157 427.843 400 429.878 400 432C400 434.122 399.157 436.157 397.657 437.657C396.157 439.157 394.122 440 392 440H120C117.878 440 115.843 439.157 114.343 437.657C112.843 436.157 112 434.122 112 432ZM384 400C384 398.418 384.469 396.871 385.348 395.555C386.227 394.24 387.477 393.214 388.939 392.609C390.4 392.003 392.009 391.845 393.561 392.154C395.113 392.462 396.538 393.224 397.657 394.343C398.776 395.462 399.538 396.887 399.846 398.439C400.155 399.991 399.997 401.6 399.391 403.061C398.786 404.523 397.76 405.773 396.445 406.652C395.129 407.531 393.582 408 392 408C389.878 408 387.843 407.157 386.343 405.657C384.843 404.157 384 402.122 384 400ZM416 400C416 398.418 416.469 396.871 417.348 395.555C418.227 394.24 419.477 393.214 420.939 392.609C422.4 392.003 424.009 391.845 425.561 392.154C427.113 392.462 428.538 393.224 429.657 394.343C430.776 395.462 431.538 396.887 431.846 398.439C432.155 399.991 431.997 401.6 431.391 403.061C430.786 404.523 429.76 405.773 428.445 406.652C427.129 407.531 425.582 408 424 408C421.878 408 419.843 407.157 418.343 405.657C416.843 404.157 416 402.122 416 400ZM448 400C448 398.418 448.469 396.871 449.348 395.555C450.227 394.24 451.477 393.214 452.939 392.609C454.4 392.003 456.009 391.845 457.561 392.154C459.113 392.462 460.538 393.224 461.657 394.343C462.776 395.462 463.538 396.887 463.846 398.439C464.155 399.991 463.997 401.6 463.391 403.061C462.786 404.523 461.76 405.773 460.445 406.652C459.129 407.531 457.582 408 456 408C453.878 408 451.843 407.157 450.343 405.657C448.843 404.157 448 402.122 448 400ZM48 432C48 429.878 48.8429 427.843 50.3431 426.343C51.8434 424.843 53.8783 424 56 424H72C74.1217 424 76.1566 424.843 77.6569 426.343C79.1571 427.843 80 429.878 80 432C80 434.122 79.1571 436.157 77.6569 437.657C76.1566 439.157 74.1217 440 72 440H56C53.8783 440 51.8434 439.157 50.3431 437.657C48.8429 436.157 48 434.122 48 432ZM432 432C432 429.878 432.843 427.843 434.343 426.343C435.843 424.843 437.878 424 440 424H456C458.122 424 460.157 424.843 461.657 426.343C463.157 427.843 464 429.878 464 432C464 434.122 463.157 436.157 461.657 437.657C460.157 439.157 458.122 440 456 440H440C437.878 440 435.843 439.157 434.343 437.657C432.843 436.157 432 434.122 432 432ZM352 184H264V152H312C318.365 152 324.47 149.471 328.971 144.971C333.471 140.47 336 134.365 336 128C336 121.635 333.471 115.53 328.971 111.029C324.47 106.529 318.365 104 312 104H200C197.878 104 195.843 103.157 194.343 101.657C192.843 100.157 192 98.1217 192 96C192 93.8783 192.843 91.8434 194.343 90.3431C195.843 88.8429 197.878 88 200 88H256C258.122 88 260.157 87.1571 261.657 85.6569C263.157 84.1566 264 82.1217 264 80V48C264 45.8783 263.157 43.8434 261.657 42.3431C260.157 40.8429 258.122 40 256 40C253.878 40 251.843 40.8429 250.343 42.3431C248.843 43.8434 248 45.8783 248 48V72H200C193.635 72 187.53 74.5286 183.029 79.0294C178.529 83.5303 176 89.6348 176 96C176 102.365 178.529 108.47 183.029 112.971C187.53 117.471 193.635 120 200 120H312C314.122 120 316.157 120.843 317.657 122.343C319.157 123.843 320 125.878 320 128C320 130.122 319.157 132.157 317.657 133.657C316.157 135.157 314.122 136 312 136H256C253.878 136 251.843 136.843 250.343 138.343C248.843 139.843 248 141.878 248 144V184H160C140.904 184 122.591 191.586 109.088 205.088C95.5857 218.591 88 236.904 88 256C88 275.096 95.5857 293.409 109.088 306.912C122.591 320.414 140.904 328 160 328C195.471 328 214.082 305.738 220.525 296H291.475C297.918 305.738 316.529 328 352 328C371.096 328 389.409 320.414 402.912 306.912C416.414 293.409 424 275.096 424 256C424 236.904 416.414 218.591 402.912 205.088C389.409 191.586 371.096 184 352 184V184ZM310.629 200C308.969 204.676 305.903 208.724 301.852 211.589C297.8 214.453 292.962 215.994 288 216H224C219.038 215.994 214.2 214.453 210.148 211.589C206.097 208.724 203.031 204.676 201.371 200H310.629ZM352 312C317.682 312 303.716 285.516 303.155 284.422C302.491 283.093 301.469 281.976 300.206 281.195C298.942 280.414 297.486 280 296 280H216C214.522 280.007 213.075 280.42 211.816 281.193C210.557 281.967 209.535 283.072 208.862 284.388C208.284 285.516 194.318 312 160 312C145.148 312 130.904 306.1 120.402 295.598C109.9 285.096 104 270.852 104 256C104 241.148 109.9 226.904 120.402 216.402C130.904 205.9 145.148 200 160 200H184.805C186.661 209.028 191.573 217.14 198.713 222.969C205.852 228.798 214.783 231.988 224 232H288C297.218 231.989 306.15 228.8 313.291 222.971C320.431 217.142 325.344 209.029 327.2 200H352C366.852 200 381.096 205.9 391.598 216.402C402.1 226.904 408 241.148 408 256C408 270.852 402.1 285.096 391.598 295.598C381.096 306.1 366.852 312 352 312V312ZM192 256C192 258.122 191.157 260.157 189.657 261.657C188.157 263.157 186.122 264 184 264H168V280C168 282.122 167.157 284.157 165.657 285.657C164.157 287.157 162.122 288 160 288C157.878 288 155.843 287.157 154.343 285.657C152.843 284.157 152 282.122 152 280V264H136C133.878 264 131.843 263.157 130.343 261.657C128.843 260.157 128 258.122 128 256C128 253.878 128.843 251.843 130.343 250.343C131.843 248.843 133.878 248 136 248H152V232C152 229.878 152.843 227.843 154.343 226.343C155.843 224.843 157.878 224 160 224C162.122 224 164.157 224.843 165.657 226.343C167.157 227.843 168 229.878 168 232V248H184C186.122 248 188.157 248.843 189.657 250.343C191.157 251.843 192 253.878 192 256ZM360 232C360 233.582 359.531 235.129 358.652 236.445C357.773 237.76 356.523 238.786 355.061 239.391C353.6 239.997 351.991 240.155 350.439 239.846C348.887 239.538 347.462 238.776 346.343 237.657C345.224 236.538 344.462 235.113 344.154 233.561C343.845 232.009 344.003 230.4 344.609 228.939C345.214 227.477 346.24 226.227 347.555 225.348C348.871 224.469 350.418 224 352 224C354.122 224 356.157 224.843 357.657 226.343C359.157 227.843 360 229.878 360 232ZM360 280C360 281.582 359.531 283.129 358.652 284.445C357.773 285.76 356.523 286.786 355.061 287.391C353.6 287.997 351.991 288.155 350.439 287.846C348.887 287.538 347.462 286.776 346.343 285.657C345.224 284.538 344.462 283.113 344.154 281.561C343.845 280.009 344.003 278.4 344.609 276.939C345.214 275.477 346.24 274.227 347.555 273.348C348.871 272.469 350.418 272 352 272C354.122 272 356.157 272.843 357.657 274.343C359.157 275.843 360 277.878 360 280ZM336 256C336 257.582 335.531 259.129 334.652 260.445C333.773 261.76 332.523 262.786 331.061 263.391C329.6 263.997 327.991 264.155 326.439 263.846C324.887 263.538 323.462 262.776 322.343 261.657C321.224 260.538 320.462 259.113 320.154 257.561C319.845 256.009 320.003 254.4 320.609 252.939C321.214 251.477 322.24 250.227 323.555 249.348C324.871 248.469 326.418 248 328 248C330.122 248 332.157 248.843 333.657 250.343C335.157 251.843 336 253.878 336 256ZM384 256C384 257.582 383.531 259.129 382.652 260.445C381.773 261.76 380.523 262.786 379.061 263.391C377.6 263.997 375.991 264.155 374.439 263.846C372.887 263.538 371.462 262.776 370.343 261.657C369.224 260.538 368.462 259.113 368.154 257.561C367.845 256.009 368.003 254.4 368.609 252.939C369.214 251.477 370.24 250.227 371.555 249.348C372.871 248.469 374.418 248 376 248C378.122 248 380.157 248.843 381.657 250.343C383.157 251.843 384 253.878 384 256ZM248 256C248 258.122 247.157 260.157 245.657 261.657C244.157 263.157 242.122 264 240 264H224C221.878 264 219.843 263.157 218.343 261.657C216.843 260.157 216 258.122 216 256C216 253.878 216.843 251.843 218.343 250.343C219.843 248.843 221.878 248 224 248H240C242.122 248 244.157 248.843 245.657 250.343C247.157 251.843 248 253.878 248 256ZM296 256C296 258.122 295.157 260.157 293.657 261.657C292.157 263.157 290.122 264 288 264H272C269.878 264 267.843 263.157 266.343 261.657C264.843 260.157 264 258.122 264 256C264 253.878 264.843 251.843 266.343 250.343C267.843 248.843 269.878 248 272 248H288C290.122 248 292.157 248.843 293.657 250.343C295.157 251.843 296 253.878 296 256Z" fill="white"/>
</svg>
