<svg width="512" height="512" viewBox="0 0 512 512" fill="none" xmlns="http://www.w3.org/2000/svg">
<path d="M376 360C375.9 364.4 379.2 368.1 383.6 368.4C388 368.6 391.8 365.2 392 360.8C392 360.7 392 360.5 392 360.4V240H376V360Z" fill="white"/>
<path d="M376 208H392V224H376V208Z" fill="white"/>
<path d="M328.5 384.5C331 384.1 333.5 384 336 384C352.6 383.9 368.3 391.7 378.2 405H379.8C395 405 409.5 411.6 419.5 423L446.4 371.1C448.6 366.8 448.5 361.6 445.9 357.4C444.9 355.8 442.1 352 436.9 352H407.9V360.5C407.9 367.1 405.2 373.3 400.5 377.9C396.1 382.2 390.1 384.6 384 384.5C383.6 384.5 383.2 384.5 382.8 384.5C369.9 383.8 359.8 373 359.9 360.1V352.1H330.9C325.7 352.1 322.9 355.9 321.9 357.5C319.4 361.7 319.2 366.9 321.4 371.2L328.5 384.5Z" fill="white"/>
<path d="M368 112C372.4 112 376 115.6 376 120V192H392V120C392 115.6 395.6 112 400 112H418.6L432 78.5V40C432 35.6 428.4 32 424 32H344C339.6 32 336 35.6 336 40V78.5L349.4 112H368ZM352 56C352 51.6 355.6 48 360 48H408C412.4 48 416 51.6 416 56V88C416 92.4 412.4 96 408 96H360C355.6 96 352 92.4 352 88V56Z" fill="white"/>
<path d="M431 456C428.8 456 426.7 456.2 424.6 456.6C420.2 457.4 416.1 454.4 415.3 450.1V450C412.7 433.5 397.5 421.1 379.9 421.1C378.3 421.1 376.8 421.2 375.2 421.4C372 421.8 368.9 420.3 367.3 417.5C356.6 400.2 334 394.9 316.7 405.6C311.9 408.6 307.8 412.7 304.8 417.5C303.2 420.2 300.1 421.8 296.9 421.4C295.3 421.2 293.8 421.1 292.2 421.1C274.6 421.1 259.4 433.5 256.8 450C256.1 454.4 252 457.3 247.6 456.7H247.5C245.4 456.3 243.2 456.1 241.1 456.1C224.7 456.1 206.6 465.9 201.5 480.1H470.7C465.5 465.8 447.4 456 431 456V456Z" fill="white"/>
<path d="M280 304C280 295.2 272.8 288 264 288H56C47.2 288 40 295.2 40 304C40 312.8 47.2 320 56 320H264C272.8 320 280 312.8 280 304Z" fill="white"/>
<path d="M239.9 440L257.2 336H62.8L85.7 473.3C86.3 477.2 89.7 480 93.6 480H184.9C187 469.5 193.4 460 203.4 452.6C213.9 444.8 226.7 440.4 239.9 440V440Z" fill="white"/>
<path d="M134.1 232H142.9L113.8 197.1C111 193.7 111.4 188.7 114.8 185.8C116.2 184.6 118 183.9 119.9 183.9C122.3 183.9 124.5 185 126 186.8L151.8 217.8V272H167.8V217.9L193.6 186.9C196.4 183.5 201.4 182.9 204.8 185.7C208.2 188.5 208.8 193.5 206 196.9C205.9 197 205.9 197.1 205.8 197.1L177.1 232H185.9C211.3 232 232 211.4 232 185.9V152H214.1C188.7 152 168 172.6 168 198.1V120H152V198.1C152 172.7 131.4 152 105.9 152H88V185.9C88 211.4 108.6 232 134.1 232V232Z" fill="white"/>
<path d="M193.8 66.9C196.6 63.4 201.6 62.9 205.1 65.6C208.5 68.4 209.1 73.4 206.3 76.8C206.2 76.9 206.2 77 206.1 77L177.1 112H185.9C211.3 112 232 91.4 232 65.9V32H214.1C188.6 32 168 52.6 168 78.1V97.9L193.8 66.9Z" fill="white"/>
<path d="M134.1 112H142.9L113.8 77.1C111 73.7 111.4 68.7 114.8 65.8C116.2 64.6 118 63.9 119.9 63.9C122.3 63.9 124.5 65 126 66.8L151.8 97.8V78.1C151.8 52.7 131.2 32 105.7 32H88V65.9C88 91.4 108.6 112 134.1 112V112Z" fill="white"/>
</svg>
