<svg width="512" height="512" viewBox="0 0 512 512" fill="none" xmlns="http://www.w3.org/2000/svg">
<path d="M220.918 279.888C219.266 279.762 217.623 279.532 216 279.2V296.813C221.279 295.732 226.721 295.732 232 296.813V279.2C228.355 279.939 224.626 280.17 220.918 279.888V279.888Z" fill="white"/>
<path d="M440 203.8V336C440 338.122 439.157 340.157 437.657 341.657C436.157 343.157 434.122 344 432 344H408C406.734 344 405.486 343.7 404.359 343.124C403.232 342.547 402.258 341.712 401.516 340.686L354.811 276.05C354.762 275.982 354.711 275.913 354.666 275.844C352.925 273.179 350.671 270.887 348.036 269.101C345.401 267.316 342.437 266.072 339.316 265.443C336.196 264.814 332.981 264.812 329.86 265.437C326.739 266.062 323.773 267.302 321.136 269.084C318.498 270.867 316.242 273.156 314.497 275.819C312.753 278.481 311.556 281.465 310.976 284.594C310.395 287.724 310.443 290.938 311.117 294.049C311.791 297.161 313.077 300.107 314.9 302.716L366.794 379.521C367.981 381.277 368.422 383.433 368.021 385.515C368.439 404.336 376.203 422.247 389.654 435.419C403.104 448.59 421.174 455.977 440 456H488V287.059C487.996 283.21 487.07 279.418 485.3 276L440 203.8Z" fill="white"/>
<path d="M323.479 344H263.2C261.077 354.396 254.912 363.523 246.061 369.374C237.209 375.225 226.396 377.321 216 375.2V424H361.639C355.637 412.301 352.352 399.399 352.028 386.254L323.479 344Z" fill="white"/>
<path d="M225.879 359.933C230.506 359.56 234.926 357.858 238.608 355.031C242.29 352.204 245.076 348.373 246.632 344H240C237.878 344 235.843 343.157 234.343 341.657C232.843 340.157 232 338.122 232 336V313.377C228.732 312.22 225.252 311.784 221.799 312.1C218.347 312.416 215.004 313.476 212 315.208C210.784 315.91 209.404 316.28 208 316.28C206.596 316.28 205.216 315.91 204 315.208C202.784 314.506 201.774 313.496 201.072 312.28C200.37 311.064 200 309.684 200 308.28V271.95C192.192 266.079 186.79 257.565 184.805 248H151.192C152.376 253.807 152.256 259.806 150.839 265.561C149.422 271.316 146.744 276.684 142.998 281.278C139.253 285.872 134.534 289.576 129.182 292.123C123.83 294.67 117.979 295.996 112.052 296.005C111.073 296.005 110.09 295.97 109.103 295.9C103.43 295.488 97.9106 293.871 92.9122 291.157C87.9137 288.444 83.5512 284.695 80.1158 280.162C76.6803 275.629 74.2509 270.416 72.9893 264.87C71.7278 259.324 71.6633 253.573 72.8 248H24V400C24.0071 406.363 26.538 412.463 31.0373 416.963C35.5367 421.462 41.637 423.993 48 424H200V363.72C200 362.316 200.37 360.936 201.072 359.72C201.774 358.504 202.784 357.494 204 356.792C205.216 356.09 206.596 355.72 208 355.72C209.404 355.72 210.784 356.09 212 356.792C216.204 359.214 221.042 360.309 225.879 359.933V359.933Z" fill="white"/>
<path d="M91.209 236C91.9111 237.216 92.2808 238.596 92.2808 240C92.2808 241.404 91.9111 242.784 91.209 244C88.3297 248.979 87.3342 254.826 88.4038 260.478C89.4734 266.129 92.5369 271.208 97.0366 274.791C101.536 278.373 107.173 280.22 112.92 279.996C118.667 279.772 124.143 277.492 128.35 273.57C132.324 269.869 134.927 264.931 135.734 259.561C136.541 254.19 135.504 248.705 132.792 244C132.09 242.784 131.72 241.404 131.72 240C131.72 238.596 132.09 237.216 132.792 236C133.494 234.784 134.504 233.774 135.72 233.072C136.936 232.37 138.316 232 139.72 232H184.793C186.741 222.41 192.155 213.875 200 208.025V183.2C194.427 184.337 188.676 184.272 183.131 183.011C177.585 181.75 172.372 179.32 167.839 175.885C163.306 172.45 159.558 168.088 156.844 163.09C154.13 158.092 152.513 152.572 152.1 146.9C151.681 141.413 152.41 135.898 154.239 130.708C156.068 125.517 158.957 120.764 162.723 116.751C167.393 111.733 173.273 108 179.801 105.908C186.328 103.817 193.284 103.438 200 104.808V56H48C41.637 56.0071 35.5367 58.538 31.0373 63.0373C26.538 67.5367 24.0071 73.637 24 80V232H84.28C85.6844 232 87.0641 232.369 88.2804 233.072C89.4968 233.774 90.5068 234.784 91.209 236Z" fill="white"/>
<path d="M222.12 263.933C226.958 264.313 231.797 263.218 236 260.792C237.216 260.09 238.596 259.72 240 259.72C241.404 259.72 242.784 260.09 244 260.792C245.216 261.494 246.226 262.504 246.928 263.72C247.63 264.936 248 266.316 248 267.72V328H312.668L301.637 311.674C298.689 307.326 296.626 302.441 295.566 297.296C294.506 292.151 294.469 286.848 295.459 281.689C296.448 276.53 298.444 271.617 301.333 267.229C304.221 262.842 307.945 259.066 312.293 256.118C321.073 250.164 331.859 247.942 342.278 249.94C352.697 251.938 361.895 257.994 367.849 266.774L412.089 328H424V176C423.993 169.637 421.462 163.537 416.963 159.037C412.463 154.538 406.363 152.007 400 152H248V212.28C248 213.684 247.63 215.064 246.928 216.28C246.226 217.496 245.216 218.506 244 219.208C242.784 219.91 241.404 220.28 240 220.28C238.596 220.28 237.216 219.91 236 219.208C232.35 217.105 228.212 215.999 224 216C220.7 216.001 217.435 216.681 214.41 218C211.384 219.319 208.663 221.248 206.417 223.665C204.17 226.083 202.446 228.938 201.352 232.052C200.259 235.166 199.819 238.472 200.06 241.763C200.491 247.481 202.951 252.857 206.996 256.922C211.041 260.987 216.404 263.473 222.12 263.933V263.933Z" fill="white"/>
</svg>
