<svg width="300" height="300" viewBox="0 0 300 300" fill="none" xmlns="http://www.w3.org/2000/svg">
<g clip-path="url(#clip0)">
<path d="M150 150C138.167 150 128.572 140.405 128.572 128.571C128.572 116.738 138.167 107.143 150 107.143C161.834 107.143 171.429 116.738 171.429 128.571C171.429 140.405 161.834 150 150 150C170.702 150.023 187.477 166.799 187.501 187.5V195.353C206.68 179.532 213.865 153.374 205.458 129.973C197.053 106.573 174.864 90.9694 150 90.9694C125.137 90.9694 102.948 106.573 94.543 129.973C86.1359 153.374 93.3215 179.532 112.5 195.353V187.5C112.524 166.799 129.299 150.023 150 150Z" fill="white"/>
<path d="M150 160.714C135.213 160.733 123.233 172.713 123.214 187.5V202.386C124.104 202.836 124.988 203.299 125.893 203.7C126.67 204.047 127.447 204.406 128.239 204.717C129.981 205.392 131.755 205.965 133.555 206.47C134.088 206.614 134.583 206.797 135.108 206.925C144.881 209.365 155.106 209.365 164.881 206.925C165.418 206.791 165.917 206.608 166.435 206.464C168.235 205.954 170.014 205.392 171.756 204.707C172.538 204.401 173.304 204.047 174.076 203.705C174.991 203.299 175.886 202.836 176.781 202.381V187.5C176.754 172.718 164.777 160.74 149.995 160.714H150Z" fill="white"/>
<path d="M160.714 128.571C160.714 134.488 155.917 139.286 150 139.286C144.083 139.286 139.286 134.488 139.286 128.571C139.286 122.655 144.083 117.857 150 117.857C155.917 117.857 160.714 122.655 160.714 128.571Z" fill="white"/>
<path d="M235.714 16.0714C235.714 7.19605 228.518 0 219.643 0H80.3571C71.4817 0 64.2856 7.19605 64.2856 16.0714V21.4286H235.714V16.0714ZM155.357 16.0714H144.643V5.35714H155.357V16.0714Z" fill="white"/>
<path d="M235.714 267.857V32.1428H64.2856V267.857H133.928V278.571H64.2856V283.929C64.2856 292.804 71.4817 300 80.3571 300H219.643C228.518 300 235.714 292.804 235.714 283.929V278.571H166.071V267.857H235.714ZM155.357 278.571H144.643V267.857H155.357V278.571ZM159.155 219.049C156.121 219.444 153.06 219.643 150 219.643C137.779 219.661 125.767 216.457 115.178 210.354L112.5 208.806V208.688C86.4283 192.028 74.4742 160.165 83.1534 130.468C91.8299 100.771 119.06 80.3597 150 80.3597C180.94 80.3597 208.17 100.771 216.846 130.468C225.526 160.165 213.572 192.028 187.5 208.688V208.811L184.821 210.359C176.922 214.919 168.201 217.872 159.155 219.049V219.049Z" fill="white"/>
</g>
<defs>
<clipPath id="clip0">
<rect width="300" height="300" fill="white"/>
</clipPath>
</defs>
</svg>
